M48
; DRILL file {KiCad 7.0.1} date Thu Mar 30 13:36:21 2023
; FORMAT={-:-/ absolute / inch / decimal}
; #@! TF.CreationDate,2023-03-30T13:36:21-06:00
; #@! TF.GenerationSoftware,Kicad,Pcbnew,7.0.1
; #@! TF.FileFunction,Plated,1,2,PTH
FMAT,2
INCH
; #@! TA.AperFunction,Plated,PTH,ComponentDrill
T1C0.0315
; #@! TA.AperFunction,Plated,PTH,ComponentDrill
T2C0.0354
; #@! TA.AperFunction,Plated,PTH,ComponentDrill
T3C0.0394
; #@! TA.AperFunction,Plated,PTH,ComponentDrill
T4C0.0433
%
G90
G05
T1
X4.037Y-2.037
X4.137Y-2.237
X4.137Y-3.437
X4.537Y-2.237
X4.637Y-2.037
X4.737Y-3.437
X5.037Y-3.337
X5.037Y-3.937
X6.037Y-2.337
X6.037Y-2.4965
X6.037Y-2.6559
X6.037Y-2.8154
X6.037Y-2.9748
X6.037Y-3.1343
X6.037Y-3.2937
X6.037Y-3.4531
X6.637Y-2.337
X6.637Y-2.4965
X6.637Y-2.6559
X6.637Y-2.8154
X6.637Y-2.9748
X6.637Y-3.1343
X6.637Y-3.2937
X6.637Y-3.4531
T2
X4.137Y-2.537
X4.237Y-2.537
X4.537Y-2.537
X4.637Y-2.537
T3
X4.0378Y-3.037
X4.337Y-3.037
X4.837Y-1.937
X4.937Y-1.937
X5.037Y-1.937
X5.137Y-1.937
X5.237Y-1.937
X5.237Y-3.937
X5.337Y-1.937
X5.337Y-3.937
X5.437Y-1.937
X5.437Y-3.937
X5.537Y-1.937
X5.537Y-3.937
X5.637Y-1.937
X5.637Y-3.937
X5.737Y-1.937
X5.737Y-3.937
X5.837Y-3.937
X5.897Y-1.937
X5.937Y-3.937
X5.997Y-1.937
X6.097Y-1.937
X6.137Y-3.937
X6.197Y-1.937
X6.237Y-3.937
X6.297Y-1.937
X6.337Y-3.937
X6.397Y-1.937
X6.437Y-3.937
X6.497Y-1.937
X6.537Y-3.937
X6.597Y-1.937
X6.637Y-3.937
X6.837Y-2.737
X6.837Y-2.837
X6.837Y-2.937
X6.837Y-3.037
X6.837Y-3.137
X6.837Y-3.237
X7.437Y-2.737
X7.437Y-2.837
X7.437Y-2.937
X7.437Y-3.037
X7.437Y-3.137
X7.437Y-3.237
T4
X4.1091Y-3.7598
X4.1091Y-3.937
X4.365Y-3.7598
X4.365Y-3.937
X4.5091Y-3.7598
X4.5091Y-3.937
X4.765Y-3.7598
X4.765Y-3.937
T0
M30
