M48
; DRILL file {KiCad 7.0.1} date Tue Jun  6 22:11:55 2023
; FORMAT={-:-/ absolute / inch / decimal}
; #@! TF.CreationDate,2023-06-06T22:11:55-06:00
; #@! TF.GenerationSoftware,Kicad,Pcbnew,7.0.1
; #@! TF.FileFunction,Plated,1,2,PTH
FMAT,2
INCH
; #@! TA.AperFunction,Plated,PTH,ViaDrill
T1C0.0157
; #@! TA.AperFunction,Plated,PTH,ComponentDrill
T2C0.0354
; #@! TA.AperFunction,Plated,PTH,ComponentDrill
T3C0.0394
; #@! TA.AperFunction,Plated,PTH,ComponentDrill
T4C0.0512
%
G90
G05
T1
X3.6Y-1.93
X3.6Y-4.53
X3.84Y-1.93
X3.84Y-4.52
X3.86Y-2.13
X3.86Y-2.21
X3.86Y-3.12
X3.88Y-1.93
X3.88Y-4.52
X4.12Y-1.93
X4.12Y-4.52
X4.14Y-2.1
X4.38Y-2.66
X4.41Y-2.48
X4.77Y-2.51
X5.02Y-2.4599
X5.02Y-2.5169
X5.16Y-3.8
X5.39Y-2.72
X5.8Y-2.28
T2
X4.69Y-2.31
X4.69Y-2.41
T3
X3.67Y-2.02
X3.67Y-2.12
X3.67Y-2.22
X3.67Y-2.32
X3.67Y-2.42
X3.67Y-2.52
X3.67Y-2.62
X3.67Y-2.72
X3.67Y-2.82
X3.67Y-2.92
X3.67Y-3.02
X3.67Y-3.12
X3.67Y-3.22
X3.67Y-3.32
X3.67Y-3.42
X3.67Y-3.52
X3.67Y-3.62
X3.67Y-3.72
X3.67Y-3.82
X3.67Y-3.92
X3.67Y-4.02
X3.67Y-4.12
X3.67Y-4.22
X3.67Y-4.32
X3.67Y-4.42
X3.77Y-2.02
X3.77Y-2.12
X3.77Y-2.22
X3.77Y-2.32
X3.77Y-2.42
X3.77Y-2.52
X3.77Y-2.62
X3.77Y-2.72
X3.77Y-2.82
X3.77Y-2.92
X3.77Y-3.02
X3.77Y-3.12
X3.77Y-3.22
X3.77Y-3.32
X3.77Y-3.42
X3.77Y-3.52
X3.77Y-3.62
X3.77Y-3.72
X3.77Y-3.82
X3.77Y-3.92
X3.77Y-4.02
X3.77Y-4.12
X3.77Y-4.22
X3.77Y-4.32
X3.77Y-4.42
X3.95Y-2.02
X3.95Y-2.12
X3.95Y-2.22
X3.95Y-2.32
X3.95Y-2.42
X3.95Y-2.52
X3.95Y-2.62
X3.95Y-2.72
X3.95Y-2.82
X3.95Y-2.92
X3.95Y-3.02
X3.95Y-3.12
X3.95Y-3.22
X3.95Y-3.32
X3.95Y-3.42
X3.95Y-3.52
X3.95Y-3.62
X3.95Y-3.72
X3.95Y-3.82
X3.95Y-3.92
X3.95Y-4.02
X3.95Y-4.12
X3.95Y-4.22
X3.95Y-4.32
X3.95Y-4.42
X4.05Y-2.02
X4.05Y-2.12
X4.05Y-2.22
X4.05Y-2.32
X4.05Y-2.42
X4.05Y-2.52
X4.05Y-2.62
X4.05Y-2.72
X4.05Y-2.82
X4.05Y-2.92
X4.05Y-3.02
X4.05Y-3.12
X4.05Y-3.22
X4.05Y-3.32
X4.05Y-3.42
X4.05Y-3.52
X4.05Y-3.62
X4.05Y-3.72
X4.05Y-3.82
X4.05Y-3.92
X4.05Y-4.02
X4.05Y-4.12
X4.05Y-4.22
X4.05Y-4.32
X4.05Y-4.42
X4.7004Y-3.8
X4.9996Y-3.8
T4
X4.4731Y-2.6606
X4.4731Y-2.8574
X4.8669Y-2.759
T0
M30
