%TF.GenerationSoftware,KiCad,Pcbnew,7.0.1*%
%TF.CreationDate,2023-06-06T22:13:03-06:00*%
%TF.ProjectId,CarSensor,43617253-656e-4736-9f72-2e6b69636164,rev?*%
%TF.SameCoordinates,Original*%
%TF.FileFunction,Soldermask,Bot*%
%TF.FilePolarity,Negative*%
%FSLAX46Y46*%
G04 Gerber Fmt 4.6, Leading zero omitted, Abs format (unit mm)*
G04 Created by KiCad (PCBNEW 7.0.1) date 2023-06-06 22:13:03*
%MOMM*%
%LPD*%
G01*
G04 APERTURE LIST*
%ADD10C,2.340000*%
%ADD11C,4.000000*%
%ADD12R,1.700000X1.700000*%
%ADD13O,1.700000X1.700000*%
%ADD14C,1.800000*%
%ADD15R,1.800000X1.800000*%
%ADD16R,2.000000X2.000000*%
%ADD17C,2.000000*%
G04 APERTURE END LIST*
D10*
%TO.C,RV1*%
X113618000Y-67579000D03*
X123618000Y-70079000D03*
X113618000Y-72579000D03*
D11*
X118618000Y-70079000D03*
%TD*%
D12*
%TO.C,P2*%
X95758000Y-51308000D03*
D13*
X93218000Y-51308000D03*
X95758000Y-53848000D03*
X93218000Y-53848000D03*
X95758000Y-56388000D03*
X93218000Y-56388000D03*
X95758000Y-58928000D03*
X93218000Y-58928000D03*
X95758000Y-61468000D03*
X93218000Y-61468000D03*
X95758000Y-64008000D03*
X93218000Y-64008000D03*
X95758000Y-66548000D03*
X93218000Y-66548000D03*
X95758000Y-69088000D03*
X93218000Y-69088000D03*
X95758000Y-71628000D03*
X93218000Y-71628000D03*
X95758000Y-74168000D03*
X93218000Y-74168000D03*
X95758000Y-76708000D03*
X93218000Y-76708000D03*
X95758000Y-79248000D03*
X93218000Y-79248000D03*
X95758000Y-81788000D03*
X93218000Y-81788000D03*
X95758000Y-84328000D03*
X93218000Y-84328000D03*
X95758000Y-86868000D03*
X93218000Y-86868000D03*
X95758000Y-89408000D03*
X93218000Y-89408000D03*
X95758000Y-91948000D03*
X93218000Y-91948000D03*
X95758000Y-94488000D03*
X93218000Y-94488000D03*
X95758000Y-97028000D03*
X93218000Y-97028000D03*
X95758000Y-99568000D03*
X93218000Y-99568000D03*
X95758000Y-102108000D03*
X93218000Y-102108000D03*
X95758000Y-104648000D03*
X93218000Y-104648000D03*
X95758000Y-107188000D03*
X93218000Y-107188000D03*
X95758000Y-109728000D03*
X93218000Y-109728000D03*
X95758000Y-112268000D03*
X93218000Y-112268000D03*
%TD*%
D12*
%TO.C,P1*%
X102870000Y-51308000D03*
D13*
X100330000Y-51308000D03*
X102870000Y-53848000D03*
X100330000Y-53848000D03*
X102870000Y-56388000D03*
X100330000Y-56388000D03*
X102870000Y-58928000D03*
X100330000Y-58928000D03*
X102870000Y-61468000D03*
X100330000Y-61468000D03*
X102870000Y-64008000D03*
X100330000Y-64008000D03*
X102870000Y-66548000D03*
X100330000Y-66548000D03*
X102870000Y-69088000D03*
X100330000Y-69088000D03*
X102870000Y-71628000D03*
X100330000Y-71628000D03*
X102870000Y-74168000D03*
X100330000Y-74168000D03*
X102870000Y-76708000D03*
X100330000Y-76708000D03*
X102870000Y-79248000D03*
X100330000Y-79248000D03*
X102870000Y-81788000D03*
X100330000Y-81788000D03*
X102870000Y-84328000D03*
X100330000Y-84328000D03*
X102870000Y-86868000D03*
X100330000Y-86868000D03*
X102870000Y-89408000D03*
X100330000Y-89408000D03*
X102870000Y-91948000D03*
X100330000Y-91948000D03*
X102870000Y-94488000D03*
X100330000Y-94488000D03*
X102870000Y-97028000D03*
X100330000Y-97028000D03*
X102870000Y-99568000D03*
X100330000Y-99568000D03*
X102870000Y-102108000D03*
X100330000Y-102108000D03*
X102870000Y-104648000D03*
X100330000Y-104648000D03*
X102870000Y-107188000D03*
X100330000Y-107188000D03*
X102870000Y-109728000D03*
X100330000Y-109728000D03*
X102870000Y-112268000D03*
X100330000Y-112268000D03*
%TD*%
D14*
%TO.C,D2*%
X119126000Y-61214000D03*
D15*
X119126000Y-58674000D03*
%TD*%
D16*
%TO.C,BZ1*%
X119390000Y-96520000D03*
D17*
X126990000Y-96520000D03*
%TD*%
M02*
