%TF.GenerationSoftware,KiCad,Pcbnew,7.0.1*%
%TF.CreationDate,2023-06-06T22:13:03-06:00*%
%TF.ProjectId,CarSensor,43617253-656e-4736-9f72-2e6b69636164,rev?*%
%TF.SameCoordinates,Original*%
%TF.FileFunction,Copper,L1,Top*%
%TF.FilePolarity,Positive*%
%FSLAX46Y46*%
G04 Gerber Fmt 4.6, Leading zero omitted, Abs format (unit mm)*
G04 Created by KiCad (PCBNEW 7.0.1) date 2023-06-06 22:13:03*
%MOMM*%
%LPD*%
G01*
G04 APERTURE LIST*
G04 Aperture macros list*
%AMRoundRect*
0 Rectangle with rounded corners*
0 $1 Rounding radius*
0 $2 $3 $4 $5 $6 $7 $8 $9 X,Y pos of 4 corners*
0 Add a 4 corners polygon primitive as box body*
4,1,4,$2,$3,$4,$5,$6,$7,$8,$9,$2,$3,0*
0 Add four circle primitives for the rounded corners*
1,1,$1+$1,$2,$3*
1,1,$1+$1,$4,$5*
1,1,$1+$1,$6,$7*
1,1,$1+$1,$8,$9*
0 Add four rect primitives between the rounded corners*
20,1,$1+$1,$2,$3,$4,$5,0*
20,1,$1+$1,$4,$5,$6,$7,0*
20,1,$1+$1,$6,$7,$8,$9,0*
20,1,$1+$1,$8,$9,$2,$3,0*%
G04 Aperture macros list end*
%ADD10C,0.300000*%
%TA.AperFunction,NonConductor*%
%ADD11C,0.300000*%
%TD*%
%TA.AperFunction,SMDPad,CuDef*%
%ADD12R,1.100000X0.400000*%
%TD*%
%TA.AperFunction,ComponentPad*%
%ADD13C,2.340000*%
%TD*%
%TA.AperFunction,SMDPad,CuDef*%
%ADD14RoundRect,0.250000X-0.262500X-0.450000X0.262500X-0.450000X0.262500X0.450000X-0.262500X0.450000X0*%
%TD*%
%TA.AperFunction,SMDPad,CuDef*%
%ADD15RoundRect,0.250000X-0.450000X0.262500X-0.450000X-0.262500X0.450000X-0.262500X0.450000X0.262500X0*%
%TD*%
%TA.AperFunction,SMDPad,CuDef*%
%ADD16RoundRect,0.250000X-0.450000X0.350000X-0.450000X-0.350000X0.450000X-0.350000X0.450000X0.350000X0*%
%TD*%
%TA.AperFunction,ComponentPad*%
%ADD17R,1.700000X1.700000*%
%TD*%
%TA.AperFunction,ComponentPad*%
%ADD18O,1.700000X1.700000*%
%TD*%
%TA.AperFunction,SMDPad,CuDef*%
%ADD19RoundRect,0.250000X0.325000X0.450000X-0.325000X0.450000X-0.325000X-0.450000X0.325000X-0.450000X0*%
%TD*%
%TA.AperFunction,SMDPad,CuDef*%
%ADD20RoundRect,0.250000X-0.325000X-0.450000X0.325000X-0.450000X0.325000X0.450000X-0.325000X0.450000X0*%
%TD*%
%TA.AperFunction,ComponentPad*%
%ADD21C,1.800000*%
%TD*%
%TA.AperFunction,ComponentPad*%
%ADD22R,1.800000X1.800000*%
%TD*%
%TA.AperFunction,SMDPad,CuDef*%
%ADD23RoundRect,0.250000X0.625000X-0.375000X0.625000X0.375000X-0.625000X0.375000X-0.625000X-0.375000X0*%
%TD*%
%TA.AperFunction,ComponentPad*%
%ADD24R,2.000000X2.000000*%
%TD*%
%TA.AperFunction,ComponentPad*%
%ADD25C,2.000000*%
%TD*%
%TA.AperFunction,ViaPad*%
%ADD26C,0.800000*%
%TD*%
%TA.AperFunction,Conductor*%
%ADD27C,0.250000*%
%TD*%
G04 APERTURE END LIST*
D10*
D11*
X112765428Y-113430428D02*
X112765428Y-111930428D01*
X114336857Y-113430428D02*
X113836857Y-112716142D01*
X113479714Y-113430428D02*
X113479714Y-111930428D01*
X113479714Y-111930428D02*
X114051143Y-111930428D01*
X114051143Y-111930428D02*
X114194000Y-112001857D01*
X114194000Y-112001857D02*
X114265429Y-112073285D01*
X114265429Y-112073285D02*
X114336857Y-112216142D01*
X114336857Y-112216142D02*
X114336857Y-112430428D01*
X114336857Y-112430428D02*
X114265429Y-112573285D01*
X114265429Y-112573285D02*
X114194000Y-112644714D01*
X114194000Y-112644714D02*
X114051143Y-112716142D01*
X114051143Y-112716142D02*
X113479714Y-112716142D01*
X116408286Y-111930428D02*
X116694000Y-111930428D01*
X116694000Y-111930428D02*
X116836857Y-112001857D01*
X116836857Y-112001857D02*
X116979714Y-112144714D01*
X116979714Y-112144714D02*
X117051143Y-112430428D01*
X117051143Y-112430428D02*
X117051143Y-112930428D01*
X117051143Y-112930428D02*
X116979714Y-113216142D01*
X116979714Y-113216142D02*
X116836857Y-113359000D01*
X116836857Y-113359000D02*
X116694000Y-113430428D01*
X116694000Y-113430428D02*
X116408286Y-113430428D01*
X116408286Y-113430428D02*
X116265429Y-113359000D01*
X116265429Y-113359000D02*
X116122571Y-113216142D01*
X116122571Y-113216142D02*
X116051143Y-112930428D01*
X116051143Y-112930428D02*
X116051143Y-112430428D01*
X116051143Y-112430428D02*
X116122571Y-112144714D01*
X116122571Y-112144714D02*
X116265429Y-112001857D01*
X116265429Y-112001857D02*
X116408286Y-111930428D01*
X117694000Y-113430428D02*
X117694000Y-111930428D01*
X117694000Y-112501857D02*
X117836858Y-112430428D01*
X117836858Y-112430428D02*
X118122572Y-112430428D01*
X118122572Y-112430428D02*
X118265429Y-112501857D01*
X118265429Y-112501857D02*
X118336858Y-112573285D01*
X118336858Y-112573285D02*
X118408286Y-112716142D01*
X118408286Y-112716142D02*
X118408286Y-113144714D01*
X118408286Y-113144714D02*
X118336858Y-113287571D01*
X118336858Y-113287571D02*
X118265429Y-113359000D01*
X118265429Y-113359000D02*
X118122572Y-113430428D01*
X118122572Y-113430428D02*
X117836858Y-113430428D01*
X117836858Y-113430428D02*
X117694000Y-113359000D01*
X119051143Y-112430428D02*
X119051143Y-113716142D01*
X119051143Y-113716142D02*
X118979715Y-113859000D01*
X118979715Y-113859000D02*
X118836858Y-113930428D01*
X118836858Y-113930428D02*
X118765429Y-113930428D01*
X119051143Y-111930428D02*
X118979715Y-112001857D01*
X118979715Y-112001857D02*
X119051143Y-112073285D01*
X119051143Y-112073285D02*
X119122572Y-112001857D01*
X119122572Y-112001857D02*
X119051143Y-111930428D01*
X119051143Y-111930428D02*
X119051143Y-112073285D01*
X120336858Y-113359000D02*
X120194001Y-113430428D01*
X120194001Y-113430428D02*
X119908287Y-113430428D01*
X119908287Y-113430428D02*
X119765429Y-113359000D01*
X119765429Y-113359000D02*
X119694001Y-113216142D01*
X119694001Y-113216142D02*
X119694001Y-112644714D01*
X119694001Y-112644714D02*
X119765429Y-112501857D01*
X119765429Y-112501857D02*
X119908287Y-112430428D01*
X119908287Y-112430428D02*
X120194001Y-112430428D01*
X120194001Y-112430428D02*
X120336858Y-112501857D01*
X120336858Y-112501857D02*
X120408287Y-112644714D01*
X120408287Y-112644714D02*
X120408287Y-112787571D01*
X120408287Y-112787571D02*
X119694001Y-112930428D01*
X121694001Y-113359000D02*
X121551143Y-113430428D01*
X121551143Y-113430428D02*
X121265429Y-113430428D01*
X121265429Y-113430428D02*
X121122572Y-113359000D01*
X121122572Y-113359000D02*
X121051143Y-113287571D01*
X121051143Y-113287571D02*
X120979715Y-113144714D01*
X120979715Y-113144714D02*
X120979715Y-112716142D01*
X120979715Y-112716142D02*
X121051143Y-112573285D01*
X121051143Y-112573285D02*
X121122572Y-112501857D01*
X121122572Y-112501857D02*
X121265429Y-112430428D01*
X121265429Y-112430428D02*
X121551143Y-112430428D01*
X121551143Y-112430428D02*
X121694001Y-112501857D01*
X122122572Y-112430428D02*
X122694000Y-112430428D01*
X122336857Y-111930428D02*
X122336857Y-113216142D01*
X122336857Y-113216142D02*
X122408286Y-113359000D01*
X122408286Y-113359000D02*
X122551143Y-113430428D01*
X122551143Y-113430428D02*
X122694000Y-113430428D01*
X124336857Y-113430428D02*
X124336857Y-111930428D01*
X124336857Y-111930428D02*
X124694000Y-111930428D01*
X124694000Y-111930428D02*
X124908286Y-112001857D01*
X124908286Y-112001857D02*
X125051143Y-112144714D01*
X125051143Y-112144714D02*
X125122572Y-112287571D01*
X125122572Y-112287571D02*
X125194000Y-112573285D01*
X125194000Y-112573285D02*
X125194000Y-112787571D01*
X125194000Y-112787571D02*
X125122572Y-113073285D01*
X125122572Y-113073285D02*
X125051143Y-113216142D01*
X125051143Y-113216142D02*
X124908286Y-113359000D01*
X124908286Y-113359000D02*
X124694000Y-113430428D01*
X124694000Y-113430428D02*
X124336857Y-113430428D01*
X126408286Y-113359000D02*
X126265429Y-113430428D01*
X126265429Y-113430428D02*
X125979715Y-113430428D01*
X125979715Y-113430428D02*
X125836857Y-113359000D01*
X125836857Y-113359000D02*
X125765429Y-113216142D01*
X125765429Y-113216142D02*
X125765429Y-112644714D01*
X125765429Y-112644714D02*
X125836857Y-112501857D01*
X125836857Y-112501857D02*
X125979715Y-112430428D01*
X125979715Y-112430428D02*
X126265429Y-112430428D01*
X126265429Y-112430428D02*
X126408286Y-112501857D01*
X126408286Y-112501857D02*
X126479715Y-112644714D01*
X126479715Y-112644714D02*
X126479715Y-112787571D01*
X126479715Y-112787571D02*
X125765429Y-112930428D01*
X126908286Y-112430428D02*
X127479714Y-112430428D01*
X127122571Y-111930428D02*
X127122571Y-113216142D01*
X127122571Y-113216142D02*
X127194000Y-113359000D01*
X127194000Y-113359000D02*
X127336857Y-113430428D01*
X127336857Y-113430428D02*
X127479714Y-113430428D01*
X128551143Y-113359000D02*
X128408286Y-113430428D01*
X128408286Y-113430428D02*
X128122572Y-113430428D01*
X128122572Y-113430428D02*
X127979714Y-113359000D01*
X127979714Y-113359000D02*
X127908286Y-113216142D01*
X127908286Y-113216142D02*
X127908286Y-112644714D01*
X127908286Y-112644714D02*
X127979714Y-112501857D01*
X127979714Y-112501857D02*
X128122572Y-112430428D01*
X128122572Y-112430428D02*
X128408286Y-112430428D01*
X128408286Y-112430428D02*
X128551143Y-112501857D01*
X128551143Y-112501857D02*
X128622572Y-112644714D01*
X128622572Y-112644714D02*
X128622572Y-112787571D01*
X128622572Y-112787571D02*
X127908286Y-112930428D01*
X129908286Y-113359000D02*
X129765428Y-113430428D01*
X129765428Y-113430428D02*
X129479714Y-113430428D01*
X129479714Y-113430428D02*
X129336857Y-113359000D01*
X129336857Y-113359000D02*
X129265428Y-113287571D01*
X129265428Y-113287571D02*
X129194000Y-113144714D01*
X129194000Y-113144714D02*
X129194000Y-112716142D01*
X129194000Y-112716142D02*
X129265428Y-112573285D01*
X129265428Y-112573285D02*
X129336857Y-112501857D01*
X129336857Y-112501857D02*
X129479714Y-112430428D01*
X129479714Y-112430428D02*
X129765428Y-112430428D01*
X129765428Y-112430428D02*
X129908286Y-112501857D01*
X130336857Y-112430428D02*
X130908285Y-112430428D01*
X130551142Y-111930428D02*
X130551142Y-113216142D01*
X130551142Y-113216142D02*
X130622571Y-113359000D01*
X130622571Y-113359000D02*
X130765428Y-113430428D01*
X130765428Y-113430428D02*
X130908285Y-113430428D01*
X131408285Y-113430428D02*
X131408285Y-112430428D01*
X131408285Y-111930428D02*
X131336857Y-112001857D01*
X131336857Y-112001857D02*
X131408285Y-112073285D01*
X131408285Y-112073285D02*
X131479714Y-112001857D01*
X131479714Y-112001857D02*
X131408285Y-111930428D01*
X131408285Y-111930428D02*
X131408285Y-112073285D01*
X132336857Y-113430428D02*
X132194000Y-113359000D01*
X132194000Y-113359000D02*
X132122571Y-113287571D01*
X132122571Y-113287571D02*
X132051143Y-113144714D01*
X132051143Y-113144714D02*
X132051143Y-112716142D01*
X132051143Y-112716142D02*
X132122571Y-112573285D01*
X132122571Y-112573285D02*
X132194000Y-112501857D01*
X132194000Y-112501857D02*
X132336857Y-112430428D01*
X132336857Y-112430428D02*
X132551143Y-112430428D01*
X132551143Y-112430428D02*
X132694000Y-112501857D01*
X132694000Y-112501857D02*
X132765429Y-112573285D01*
X132765429Y-112573285D02*
X132836857Y-112716142D01*
X132836857Y-112716142D02*
X132836857Y-113144714D01*
X132836857Y-113144714D02*
X132765429Y-113287571D01*
X132765429Y-113287571D02*
X132694000Y-113359000D01*
X132694000Y-113359000D02*
X132551143Y-113430428D01*
X132551143Y-113430428D02*
X132336857Y-113430428D01*
X133479714Y-112430428D02*
X133479714Y-113430428D01*
X133479714Y-112573285D02*
X133551143Y-112501857D01*
X133551143Y-112501857D02*
X133694000Y-112430428D01*
X133694000Y-112430428D02*
X133908286Y-112430428D01*
X133908286Y-112430428D02*
X134051143Y-112501857D01*
X134051143Y-112501857D02*
X134122572Y-112644714D01*
X134122572Y-112644714D02*
X134122572Y-113430428D01*
X115086857Y-115789000D02*
X115301143Y-115860428D01*
X115301143Y-115860428D02*
X115658285Y-115860428D01*
X115658285Y-115860428D02*
X115801143Y-115789000D01*
X115801143Y-115789000D02*
X115872571Y-115717571D01*
X115872571Y-115717571D02*
X115944000Y-115574714D01*
X115944000Y-115574714D02*
X115944000Y-115431857D01*
X115944000Y-115431857D02*
X115872571Y-115289000D01*
X115872571Y-115289000D02*
X115801143Y-115217571D01*
X115801143Y-115217571D02*
X115658285Y-115146142D01*
X115658285Y-115146142D02*
X115372571Y-115074714D01*
X115372571Y-115074714D02*
X115229714Y-115003285D01*
X115229714Y-115003285D02*
X115158285Y-114931857D01*
X115158285Y-114931857D02*
X115086857Y-114789000D01*
X115086857Y-114789000D02*
X115086857Y-114646142D01*
X115086857Y-114646142D02*
X115158285Y-114503285D01*
X115158285Y-114503285D02*
X115229714Y-114431857D01*
X115229714Y-114431857D02*
X115372571Y-114360428D01*
X115372571Y-114360428D02*
X115729714Y-114360428D01*
X115729714Y-114360428D02*
X115944000Y-114431857D01*
X116586856Y-115860428D02*
X116586856Y-114360428D01*
X117229714Y-115860428D02*
X117229714Y-115074714D01*
X117229714Y-115074714D02*
X117158285Y-114931857D01*
X117158285Y-114931857D02*
X117015428Y-114860428D01*
X117015428Y-114860428D02*
X116801142Y-114860428D01*
X116801142Y-114860428D02*
X116658285Y-114931857D01*
X116658285Y-114931857D02*
X116586856Y-115003285D01*
X118158285Y-115860428D02*
X118015428Y-115789000D01*
X118015428Y-115789000D02*
X117943999Y-115717571D01*
X117943999Y-115717571D02*
X117872571Y-115574714D01*
X117872571Y-115574714D02*
X117872571Y-115146142D01*
X117872571Y-115146142D02*
X117943999Y-115003285D01*
X117943999Y-115003285D02*
X118015428Y-114931857D01*
X118015428Y-114931857D02*
X118158285Y-114860428D01*
X118158285Y-114860428D02*
X118372571Y-114860428D01*
X118372571Y-114860428D02*
X118515428Y-114931857D01*
X118515428Y-114931857D02*
X118586857Y-115003285D01*
X118586857Y-115003285D02*
X118658285Y-115146142D01*
X118658285Y-115146142D02*
X118658285Y-115574714D01*
X118658285Y-115574714D02*
X118586857Y-115717571D01*
X118586857Y-115717571D02*
X118515428Y-115789000D01*
X118515428Y-115789000D02*
X118372571Y-115860428D01*
X118372571Y-115860428D02*
X118158285Y-115860428D01*
X119515428Y-115860428D02*
X119372571Y-115789000D01*
X119372571Y-115789000D02*
X119301142Y-115717571D01*
X119301142Y-115717571D02*
X119229714Y-115574714D01*
X119229714Y-115574714D02*
X119229714Y-115146142D01*
X119229714Y-115146142D02*
X119301142Y-115003285D01*
X119301142Y-115003285D02*
X119372571Y-114931857D01*
X119372571Y-114931857D02*
X119515428Y-114860428D01*
X119515428Y-114860428D02*
X119729714Y-114860428D01*
X119729714Y-114860428D02*
X119872571Y-114931857D01*
X119872571Y-114931857D02*
X119944000Y-115003285D01*
X119944000Y-115003285D02*
X120015428Y-115146142D01*
X120015428Y-115146142D02*
X120015428Y-115574714D01*
X120015428Y-115574714D02*
X119944000Y-115717571D01*
X119944000Y-115717571D02*
X119872571Y-115789000D01*
X119872571Y-115789000D02*
X119729714Y-115860428D01*
X119729714Y-115860428D02*
X119515428Y-115860428D01*
X121301143Y-114860428D02*
X121301143Y-116360428D01*
X121301143Y-115789000D02*
X121158285Y-115860428D01*
X121158285Y-115860428D02*
X120872571Y-115860428D01*
X120872571Y-115860428D02*
X120729714Y-115789000D01*
X120729714Y-115789000D02*
X120658285Y-115717571D01*
X120658285Y-115717571D02*
X120586857Y-115574714D01*
X120586857Y-115574714D02*
X120586857Y-115146142D01*
X120586857Y-115146142D02*
X120658285Y-115003285D01*
X120658285Y-115003285D02*
X120729714Y-114931857D01*
X120729714Y-114931857D02*
X120872571Y-114860428D01*
X120872571Y-114860428D02*
X121158285Y-114860428D01*
X121158285Y-114860428D02*
X121301143Y-114931857D01*
X123086857Y-115431857D02*
X123801143Y-115431857D01*
X122944000Y-115860428D02*
X123444000Y-114360428D01*
X123444000Y-114360428D02*
X123944000Y-115860428D01*
X124658285Y-115860428D02*
X124515428Y-115789000D01*
X124515428Y-115789000D02*
X124443999Y-115646142D01*
X124443999Y-115646142D02*
X124443999Y-114360428D01*
X125872571Y-115860428D02*
X125872571Y-115074714D01*
X125872571Y-115074714D02*
X125801142Y-114931857D01*
X125801142Y-114931857D02*
X125658285Y-114860428D01*
X125658285Y-114860428D02*
X125372571Y-114860428D01*
X125372571Y-114860428D02*
X125229713Y-114931857D01*
X125872571Y-115789000D02*
X125729713Y-115860428D01*
X125729713Y-115860428D02*
X125372571Y-115860428D01*
X125372571Y-115860428D02*
X125229713Y-115789000D01*
X125229713Y-115789000D02*
X125158285Y-115646142D01*
X125158285Y-115646142D02*
X125158285Y-115503285D01*
X125158285Y-115503285D02*
X125229713Y-115360428D01*
X125229713Y-115360428D02*
X125372571Y-115289000D01*
X125372571Y-115289000D02*
X125729713Y-115289000D01*
X125729713Y-115289000D02*
X125872571Y-115217571D01*
X126515428Y-115789000D02*
X126658285Y-115860428D01*
X126658285Y-115860428D02*
X126943999Y-115860428D01*
X126943999Y-115860428D02*
X127086856Y-115789000D01*
X127086856Y-115789000D02*
X127158285Y-115646142D01*
X127158285Y-115646142D02*
X127158285Y-115574714D01*
X127158285Y-115574714D02*
X127086856Y-115431857D01*
X127086856Y-115431857D02*
X126943999Y-115360428D01*
X126943999Y-115360428D02*
X126729714Y-115360428D01*
X126729714Y-115360428D02*
X126586856Y-115289000D01*
X126586856Y-115289000D02*
X126515428Y-115146142D01*
X126515428Y-115146142D02*
X126515428Y-115074714D01*
X126515428Y-115074714D02*
X126586856Y-114931857D01*
X126586856Y-114931857D02*
X126729714Y-114860428D01*
X126729714Y-114860428D02*
X126943999Y-114860428D01*
X126943999Y-114860428D02*
X127086856Y-114931857D01*
X128015428Y-115860428D02*
X127872571Y-115789000D01*
X127872571Y-115789000D02*
X127801142Y-115717571D01*
X127801142Y-115717571D02*
X127729714Y-115574714D01*
X127729714Y-115574714D02*
X127729714Y-115146142D01*
X127729714Y-115146142D02*
X127801142Y-115003285D01*
X127801142Y-115003285D02*
X127872571Y-114931857D01*
X127872571Y-114931857D02*
X128015428Y-114860428D01*
X128015428Y-114860428D02*
X128229714Y-114860428D01*
X128229714Y-114860428D02*
X128372571Y-114931857D01*
X128372571Y-114931857D02*
X128444000Y-115003285D01*
X128444000Y-115003285D02*
X128515428Y-115146142D01*
X128515428Y-115146142D02*
X128515428Y-115574714D01*
X128515428Y-115574714D02*
X128444000Y-115717571D01*
X128444000Y-115717571D02*
X128372571Y-115789000D01*
X128372571Y-115789000D02*
X128229714Y-115860428D01*
X128229714Y-115860428D02*
X128015428Y-115860428D01*
X129801143Y-114860428D02*
X129801143Y-115860428D01*
X129158285Y-114860428D02*
X129158285Y-115646142D01*
X129158285Y-115646142D02*
X129229714Y-115789000D01*
X129229714Y-115789000D02*
X129372571Y-115860428D01*
X129372571Y-115860428D02*
X129586857Y-115860428D01*
X129586857Y-115860428D02*
X129729714Y-115789000D01*
X129729714Y-115789000D02*
X129801143Y-115717571D01*
X130444000Y-115789000D02*
X130586857Y-115860428D01*
X130586857Y-115860428D02*
X130872571Y-115860428D01*
X130872571Y-115860428D02*
X131015428Y-115789000D01*
X131015428Y-115789000D02*
X131086857Y-115646142D01*
X131086857Y-115646142D02*
X131086857Y-115574714D01*
X131086857Y-115574714D02*
X131015428Y-115431857D01*
X131015428Y-115431857D02*
X130872571Y-115360428D01*
X130872571Y-115360428D02*
X130658286Y-115360428D01*
X130658286Y-115360428D02*
X130515428Y-115289000D01*
X130515428Y-115289000D02*
X130444000Y-115146142D01*
X130444000Y-115146142D02*
X130444000Y-115074714D01*
X130444000Y-115074714D02*
X130515428Y-114931857D01*
X130515428Y-114931857D02*
X130658286Y-114860428D01*
X130658286Y-114860428D02*
X130872571Y-114860428D01*
X130872571Y-114860428D02*
X131015428Y-114931857D01*
X131729714Y-115860428D02*
X131729714Y-114860428D01*
X131729714Y-114360428D02*
X131658286Y-114431857D01*
X131658286Y-114431857D02*
X131729714Y-114503285D01*
X131729714Y-114503285D02*
X131801143Y-114431857D01*
X131801143Y-114431857D02*
X131729714Y-114360428D01*
X131729714Y-114360428D02*
X131729714Y-114503285D01*
X112979714Y-117504714D02*
X113479714Y-117504714D01*
X113694000Y-118290428D02*
X112979714Y-118290428D01*
X112979714Y-118290428D02*
X112979714Y-116790428D01*
X112979714Y-116790428D02*
X113694000Y-116790428D01*
X114336857Y-118290428D02*
X114336857Y-117290428D01*
X114336857Y-117433285D02*
X114408286Y-117361857D01*
X114408286Y-117361857D02*
X114551143Y-117290428D01*
X114551143Y-117290428D02*
X114765429Y-117290428D01*
X114765429Y-117290428D02*
X114908286Y-117361857D01*
X114908286Y-117361857D02*
X114979715Y-117504714D01*
X114979715Y-117504714D02*
X114979715Y-118290428D01*
X114979715Y-117504714D02*
X115051143Y-117361857D01*
X115051143Y-117361857D02*
X115194000Y-117290428D01*
X115194000Y-117290428D02*
X115408286Y-117290428D01*
X115408286Y-117290428D02*
X115551143Y-117361857D01*
X115551143Y-117361857D02*
X115622572Y-117504714D01*
X115622572Y-117504714D02*
X115622572Y-118290428D01*
X116336857Y-118290428D02*
X116336857Y-116790428D01*
X116336857Y-117361857D02*
X116479715Y-117290428D01*
X116479715Y-117290428D02*
X116765429Y-117290428D01*
X116765429Y-117290428D02*
X116908286Y-117361857D01*
X116908286Y-117361857D02*
X116979715Y-117433285D01*
X116979715Y-117433285D02*
X117051143Y-117576142D01*
X117051143Y-117576142D02*
X117051143Y-118004714D01*
X117051143Y-118004714D02*
X116979715Y-118147571D01*
X116979715Y-118147571D02*
X116908286Y-118219000D01*
X116908286Y-118219000D02*
X116765429Y-118290428D01*
X116765429Y-118290428D02*
X116479715Y-118290428D01*
X116479715Y-118290428D02*
X116336857Y-118219000D01*
X118265429Y-118219000D02*
X118122572Y-118290428D01*
X118122572Y-118290428D02*
X117836858Y-118290428D01*
X117836858Y-118290428D02*
X117694000Y-118219000D01*
X117694000Y-118219000D02*
X117622572Y-118076142D01*
X117622572Y-118076142D02*
X117622572Y-117504714D01*
X117622572Y-117504714D02*
X117694000Y-117361857D01*
X117694000Y-117361857D02*
X117836858Y-117290428D01*
X117836858Y-117290428D02*
X118122572Y-117290428D01*
X118122572Y-117290428D02*
X118265429Y-117361857D01*
X118265429Y-117361857D02*
X118336858Y-117504714D01*
X118336858Y-117504714D02*
X118336858Y-117647571D01*
X118336858Y-117647571D02*
X117622572Y-117790428D01*
X119622572Y-118290428D02*
X119622572Y-116790428D01*
X119622572Y-118219000D02*
X119479714Y-118290428D01*
X119479714Y-118290428D02*
X119194000Y-118290428D01*
X119194000Y-118290428D02*
X119051143Y-118219000D01*
X119051143Y-118219000D02*
X118979714Y-118147571D01*
X118979714Y-118147571D02*
X118908286Y-118004714D01*
X118908286Y-118004714D02*
X118908286Y-117576142D01*
X118908286Y-117576142D02*
X118979714Y-117433285D01*
X118979714Y-117433285D02*
X119051143Y-117361857D01*
X119051143Y-117361857D02*
X119194000Y-117290428D01*
X119194000Y-117290428D02*
X119479714Y-117290428D01*
X119479714Y-117290428D02*
X119622572Y-117361857D01*
X120979715Y-118290428D02*
X120979715Y-116790428D01*
X120979715Y-118219000D02*
X120836857Y-118290428D01*
X120836857Y-118290428D02*
X120551143Y-118290428D01*
X120551143Y-118290428D02*
X120408286Y-118219000D01*
X120408286Y-118219000D02*
X120336857Y-118147571D01*
X120336857Y-118147571D02*
X120265429Y-118004714D01*
X120265429Y-118004714D02*
X120265429Y-117576142D01*
X120265429Y-117576142D02*
X120336857Y-117433285D01*
X120336857Y-117433285D02*
X120408286Y-117361857D01*
X120408286Y-117361857D02*
X120551143Y-117290428D01*
X120551143Y-117290428D02*
X120836857Y-117290428D01*
X120836857Y-117290428D02*
X120979715Y-117361857D01*
X122265429Y-118219000D02*
X122122572Y-118290428D01*
X122122572Y-118290428D02*
X121836858Y-118290428D01*
X121836858Y-118290428D02*
X121694000Y-118219000D01*
X121694000Y-118219000D02*
X121622572Y-118076142D01*
X121622572Y-118076142D02*
X121622572Y-117504714D01*
X121622572Y-117504714D02*
X121694000Y-117361857D01*
X121694000Y-117361857D02*
X121836858Y-117290428D01*
X121836858Y-117290428D02*
X122122572Y-117290428D01*
X122122572Y-117290428D02*
X122265429Y-117361857D01*
X122265429Y-117361857D02*
X122336858Y-117504714D01*
X122336858Y-117504714D02*
X122336858Y-117647571D01*
X122336858Y-117647571D02*
X121622572Y-117790428D01*
X123622572Y-118290428D02*
X123622572Y-116790428D01*
X123622572Y-118219000D02*
X123479714Y-118290428D01*
X123479714Y-118290428D02*
X123194000Y-118290428D01*
X123194000Y-118290428D02*
X123051143Y-118219000D01*
X123051143Y-118219000D02*
X122979714Y-118147571D01*
X122979714Y-118147571D02*
X122908286Y-118004714D01*
X122908286Y-118004714D02*
X122908286Y-117576142D01*
X122908286Y-117576142D02*
X122979714Y-117433285D01*
X122979714Y-117433285D02*
X123051143Y-117361857D01*
X123051143Y-117361857D02*
X123194000Y-117290428D01*
X123194000Y-117290428D02*
X123479714Y-117290428D01*
X123479714Y-117290428D02*
X123622572Y-117361857D01*
X125408286Y-118219000D02*
X125622572Y-118290428D01*
X125622572Y-118290428D02*
X125979714Y-118290428D01*
X125979714Y-118290428D02*
X126122572Y-118219000D01*
X126122572Y-118219000D02*
X126194000Y-118147571D01*
X126194000Y-118147571D02*
X126265429Y-118004714D01*
X126265429Y-118004714D02*
X126265429Y-117861857D01*
X126265429Y-117861857D02*
X126194000Y-117719000D01*
X126194000Y-117719000D02*
X126122572Y-117647571D01*
X126122572Y-117647571D02*
X125979714Y-117576142D01*
X125979714Y-117576142D02*
X125694000Y-117504714D01*
X125694000Y-117504714D02*
X125551143Y-117433285D01*
X125551143Y-117433285D02*
X125479714Y-117361857D01*
X125479714Y-117361857D02*
X125408286Y-117219000D01*
X125408286Y-117219000D02*
X125408286Y-117076142D01*
X125408286Y-117076142D02*
X125479714Y-116933285D01*
X125479714Y-116933285D02*
X125551143Y-116861857D01*
X125551143Y-116861857D02*
X125694000Y-116790428D01*
X125694000Y-116790428D02*
X126051143Y-116790428D01*
X126051143Y-116790428D02*
X126265429Y-116861857D01*
X126765428Y-117290428D02*
X127122571Y-118290428D01*
X127479714Y-117290428D02*
X127122571Y-118290428D01*
X127122571Y-118290428D02*
X126979714Y-118647571D01*
X126979714Y-118647571D02*
X126908285Y-118719000D01*
X126908285Y-118719000D02*
X126765428Y-118790428D01*
X127979714Y-118219000D02*
X128122571Y-118290428D01*
X128122571Y-118290428D02*
X128408285Y-118290428D01*
X128408285Y-118290428D02*
X128551142Y-118219000D01*
X128551142Y-118219000D02*
X128622571Y-118076142D01*
X128622571Y-118076142D02*
X128622571Y-118004714D01*
X128622571Y-118004714D02*
X128551142Y-117861857D01*
X128551142Y-117861857D02*
X128408285Y-117790428D01*
X128408285Y-117790428D02*
X128194000Y-117790428D01*
X128194000Y-117790428D02*
X128051142Y-117719000D01*
X128051142Y-117719000D02*
X127979714Y-117576142D01*
X127979714Y-117576142D02*
X127979714Y-117504714D01*
X127979714Y-117504714D02*
X128051142Y-117361857D01*
X128051142Y-117361857D02*
X128194000Y-117290428D01*
X128194000Y-117290428D02*
X128408285Y-117290428D01*
X128408285Y-117290428D02*
X128551142Y-117361857D01*
X129051143Y-117290428D02*
X129622571Y-117290428D01*
X129265428Y-116790428D02*
X129265428Y-118076142D01*
X129265428Y-118076142D02*
X129336857Y-118219000D01*
X129336857Y-118219000D02*
X129479714Y-118290428D01*
X129479714Y-118290428D02*
X129622571Y-118290428D01*
X130694000Y-118219000D02*
X130551143Y-118290428D01*
X130551143Y-118290428D02*
X130265429Y-118290428D01*
X130265429Y-118290428D02*
X130122571Y-118219000D01*
X130122571Y-118219000D02*
X130051143Y-118076142D01*
X130051143Y-118076142D02*
X130051143Y-117504714D01*
X130051143Y-117504714D02*
X130122571Y-117361857D01*
X130122571Y-117361857D02*
X130265429Y-117290428D01*
X130265429Y-117290428D02*
X130551143Y-117290428D01*
X130551143Y-117290428D02*
X130694000Y-117361857D01*
X130694000Y-117361857D02*
X130765429Y-117504714D01*
X130765429Y-117504714D02*
X130765429Y-117647571D01*
X130765429Y-117647571D02*
X130051143Y-117790428D01*
X131408285Y-118290428D02*
X131408285Y-117290428D01*
X131408285Y-117433285D02*
X131479714Y-117361857D01*
X131479714Y-117361857D02*
X131622571Y-117290428D01*
X131622571Y-117290428D02*
X131836857Y-117290428D01*
X131836857Y-117290428D02*
X131979714Y-117361857D01*
X131979714Y-117361857D02*
X132051143Y-117504714D01*
X132051143Y-117504714D02*
X132051143Y-118290428D01*
X132051143Y-117504714D02*
X132122571Y-117361857D01*
X132122571Y-117361857D02*
X132265428Y-117290428D01*
X132265428Y-117290428D02*
X132479714Y-117290428D01*
X132479714Y-117290428D02*
X132622571Y-117361857D01*
X132622571Y-117361857D02*
X132694000Y-117504714D01*
X132694000Y-117504714D02*
X132694000Y-118290428D01*
X133336857Y-118219000D02*
X133479714Y-118290428D01*
X133479714Y-118290428D02*
X133765428Y-118290428D01*
X133765428Y-118290428D02*
X133908285Y-118219000D01*
X133908285Y-118219000D02*
X133979714Y-118076142D01*
X133979714Y-118076142D02*
X133979714Y-118004714D01*
X133979714Y-118004714D02*
X133908285Y-117861857D01*
X133908285Y-117861857D02*
X133765428Y-117790428D01*
X133765428Y-117790428D02*
X133551143Y-117790428D01*
X133551143Y-117790428D02*
X133408285Y-117719000D01*
X133408285Y-117719000D02*
X133336857Y-117576142D01*
X133336857Y-117576142D02*
X133336857Y-117504714D01*
X133336857Y-117504714D02*
X133408285Y-117361857D01*
X133408285Y-117361857D02*
X133551143Y-117290428D01*
X133551143Y-117290428D02*
X133765428Y-117290428D01*
X133765428Y-117290428D02*
X133908285Y-117361857D01*
X120301144Y-119363285D02*
X120372572Y-119291857D01*
X120372572Y-119291857D02*
X120515430Y-119220428D01*
X120515430Y-119220428D02*
X120872572Y-119220428D01*
X120872572Y-119220428D02*
X121015430Y-119291857D01*
X121015430Y-119291857D02*
X121086858Y-119363285D01*
X121086858Y-119363285D02*
X121158287Y-119506142D01*
X121158287Y-119506142D02*
X121158287Y-119649000D01*
X121158287Y-119649000D02*
X121086858Y-119863285D01*
X121086858Y-119863285D02*
X120229715Y-120720428D01*
X120229715Y-120720428D02*
X121158287Y-120720428D01*
X122086858Y-119220428D02*
X122229715Y-119220428D01*
X122229715Y-119220428D02*
X122372572Y-119291857D01*
X122372572Y-119291857D02*
X122444001Y-119363285D01*
X122444001Y-119363285D02*
X122515429Y-119506142D01*
X122515429Y-119506142D02*
X122586858Y-119791857D01*
X122586858Y-119791857D02*
X122586858Y-120149000D01*
X122586858Y-120149000D02*
X122515429Y-120434714D01*
X122515429Y-120434714D02*
X122444001Y-120577571D01*
X122444001Y-120577571D02*
X122372572Y-120649000D01*
X122372572Y-120649000D02*
X122229715Y-120720428D01*
X122229715Y-120720428D02*
X122086858Y-120720428D01*
X122086858Y-120720428D02*
X121944001Y-120649000D01*
X121944001Y-120649000D02*
X121872572Y-120577571D01*
X121872572Y-120577571D02*
X121801143Y-120434714D01*
X121801143Y-120434714D02*
X121729715Y-120149000D01*
X121729715Y-120149000D02*
X121729715Y-119791857D01*
X121729715Y-119791857D02*
X121801143Y-119506142D01*
X121801143Y-119506142D02*
X121872572Y-119363285D01*
X121872572Y-119363285D02*
X121944001Y-119291857D01*
X121944001Y-119291857D02*
X122086858Y-119220428D01*
X123158286Y-119363285D02*
X123229714Y-119291857D01*
X123229714Y-119291857D02*
X123372572Y-119220428D01*
X123372572Y-119220428D02*
X123729714Y-119220428D01*
X123729714Y-119220428D02*
X123872572Y-119291857D01*
X123872572Y-119291857D02*
X123944000Y-119363285D01*
X123944000Y-119363285D02*
X124015429Y-119506142D01*
X124015429Y-119506142D02*
X124015429Y-119649000D01*
X124015429Y-119649000D02*
X123944000Y-119863285D01*
X123944000Y-119863285D02*
X123086857Y-120720428D01*
X123086857Y-120720428D02*
X124015429Y-120720428D01*
X124515428Y-119220428D02*
X125444000Y-119220428D01*
X125444000Y-119220428D02*
X124944000Y-119791857D01*
X124944000Y-119791857D02*
X125158285Y-119791857D01*
X125158285Y-119791857D02*
X125301143Y-119863285D01*
X125301143Y-119863285D02*
X125372571Y-119934714D01*
X125372571Y-119934714D02*
X125444000Y-120077571D01*
X125444000Y-120077571D02*
X125444000Y-120434714D01*
X125444000Y-120434714D02*
X125372571Y-120577571D01*
X125372571Y-120577571D02*
X125301143Y-120649000D01*
X125301143Y-120649000D02*
X125158285Y-120720428D01*
X125158285Y-120720428D02*
X124729714Y-120720428D01*
X124729714Y-120720428D02*
X124586857Y-120649000D01*
X124586857Y-120649000D02*
X124515428Y-120577571D01*
D12*
%TO.P,U1,8,NC*%
%TO.N,unconnected-(U1-NC-Pad8)*%
X133468000Y-61255000D03*
%TO.P,U1,7,V+*%
%TO.N,VDD*%
X133468000Y-61905000D03*
%TO.P,U1,6*%
%TO.N,Net-(R3-Pad1)*%
X133468000Y-62555000D03*
%TO.P,U1,5,NULL*%
%TO.N,unconnected-(U1-NULL-Pad5)*%
X133468000Y-63205000D03*
%TO.P,U1,4,V-*%
%TO.N,GND*%
X129168000Y-63205000D03*
%TO.P,U1,3,+*%
%TO.N,Net-(U1-+)*%
X129168000Y-62555000D03*
%TO.P,U1,2,-*%
%TO.N,Net-(D2-K)*%
X129168000Y-61905000D03*
%TO.P,U1,1,NULL*%
%TO.N,unconnected-(U1-NULL-Pad1)*%
X129168000Y-61255000D03*
%TD*%
D13*
%TO.P,RV1,3,3*%
%TO.N,GND*%
X113618000Y-67579000D03*
%TO.P,RV1,2,2*%
%TO.N,Net-(U1-+)*%
X123618000Y-70079000D03*
%TO.P,RV1,1,1*%
%TO.N,VDD*%
X113618000Y-72579000D03*
%TD*%
D14*
%TO.P,R4,2*%
%TO.N,Net-(D4-A)*%
X140358500Y-57912000D03*
%TO.P,R4,1*%
%TO.N,VDD*%
X138533500Y-57912000D03*
%TD*%
%TO.P,R3,2*%
%TO.N,IR_OUTPUT*%
X140358500Y-62738000D03*
%TO.P,R3,1*%
%TO.N,Net-(R3-Pad1)*%
X138533500Y-62738000D03*
%TD*%
D15*
%TO.P,R2,2*%
%TO.N,Net-(D2-K)*%
X119126000Y-55014500D03*
%TO.P,R2,1*%
%TO.N,VDD*%
X119126000Y-53189500D03*
%TD*%
D16*
%TO.P,R1,2*%
%TO.N,Net-(D1-A)*%
X112014000Y-55102000D03*
%TO.P,R1,1*%
%TO.N,VDD*%
X112014000Y-53102000D03*
%TD*%
D17*
%TO.P,P2,1,Pin_1*%
%TO.N,GND*%
X95758000Y-51308000D03*
D18*
%TO.P,P2,2,Pin_2*%
X93218000Y-51308000D03*
%TO.P,P2,3,Pin_3*%
%TO.N,VDD*%
X95758000Y-53848000D03*
%TO.P,P2,4,Pin_4*%
%TO.N,+5V*%
X93218000Y-53848000D03*
%TO.P,P2,5,Pin_5*%
%TO.N,+3V0*%
X95758000Y-56388000D03*
%TO.P,P2,6,Pin_6*%
X93218000Y-56388000D03*
%TO.P,P2,7,Pin_7*%
%TO.N,unconnected-(P2-Pin_7-Pad7)*%
X95758000Y-58928000D03*
%TO.P,P2,8,Pin_8*%
%TO.N,unconnected-(P2-Pin_8-Pad8)*%
X93218000Y-58928000D03*
%TO.P,P2,9,Pin_9*%
%TO.N,unconnected-(P2-Pin_9-Pad9)*%
X95758000Y-61468000D03*
%TO.P,P2,10,Pin_10*%
%TO.N,unconnected-(P2-Pin_10-Pad10)*%
X93218000Y-61468000D03*
%TO.P,P2,11,Pin_11*%
%TO.N,unconnected-(P2-Pin_11-Pad11)*%
X95758000Y-64008000D03*
%TO.P,P2,12,Pin_12*%
%TO.N,unconnected-(P2-Pin_12-Pad12)*%
X93218000Y-64008000D03*
%TO.P,P2,13,Pin_13*%
%TO.N,unconnected-(P2-Pin_13-Pad13)*%
X95758000Y-66548000D03*
%TO.P,P2,14,Pin_14*%
%TO.N,unconnected-(P2-Pin_14-Pad14)*%
X93218000Y-66548000D03*
%TO.P,P2,15,Pin_15*%
%TO.N,unconnected-(P2-Pin_15-Pad15)*%
X95758000Y-69088000D03*
%TO.P,P2,16,Pin_16*%
%TO.N,unconnected-(P2-Pin_16-Pad16)*%
X93218000Y-69088000D03*
%TO.P,P2,17,Pin_17*%
%TO.N,unconnected-(P2-Pin_17-Pad17)*%
X95758000Y-71628000D03*
%TO.P,P2,18,Pin_18*%
%TO.N,unconnected-(P2-Pin_18-Pad18)*%
X93218000Y-71628000D03*
%TO.P,P2,19,Pin_19*%
%TO.N,unconnected-(P2-Pin_19-Pad19)*%
X95758000Y-74168000D03*
%TO.P,P2,20,Pin_20*%
%TO.N,unconnected-(P2-Pin_20-Pad20)*%
X93218000Y-74168000D03*
%TO.P,P2,21,Pin_21*%
%TO.N,unconnected-(P2-Pin_21-Pad21)*%
X95758000Y-76708000D03*
%TO.P,P2,22,Pin_22*%
%TO.N,unconnected-(P2-Pin_22-Pad22)*%
X93218000Y-76708000D03*
%TO.P,P2,23,Pin_23*%
%TO.N,unconnected-(P2-Pin_23-Pad23)*%
X95758000Y-79248000D03*
%TO.P,P2,24,Pin_24*%
%TO.N,unconnected-(P2-Pin_24-Pad24)*%
X93218000Y-79248000D03*
%TO.P,P2,25,Pin_25*%
%TO.N,unconnected-(P2-Pin_25-Pad25)*%
X95758000Y-81788000D03*
%TO.P,P2,26,Pin_26*%
%TO.N,unconnected-(P2-Pin_26-Pad26)*%
X93218000Y-81788000D03*
%TO.P,P2,27,Pin_27*%
%TO.N,unconnected-(P2-Pin_27-Pad27)*%
X95758000Y-84328000D03*
%TO.P,P2,28,Pin_28*%
%TO.N,unconnected-(P2-Pin_28-Pad28)*%
X93218000Y-84328000D03*
%TO.P,P2,29,Pin_29*%
%TO.N,unconnected-(P2-Pin_29-Pad29)*%
X95758000Y-86868000D03*
%TO.P,P2,30,Pin_30*%
%TO.N,unconnected-(P2-Pin_30-Pad30)*%
X93218000Y-86868000D03*
%TO.P,P2,31,Pin_31*%
%TO.N,unconnected-(P2-Pin_31-Pad31)*%
X95758000Y-89408000D03*
%TO.P,P2,32,Pin_32*%
%TO.N,unconnected-(P2-Pin_32-Pad32)*%
X93218000Y-89408000D03*
%TO.P,P2,33,Pin_33*%
%TO.N,unconnected-(P2-Pin_33-Pad33)*%
X95758000Y-91948000D03*
%TO.P,P2,34,Pin_34*%
%TO.N,unconnected-(P2-Pin_34-Pad34)*%
X93218000Y-91948000D03*
%TO.P,P2,35,Pin_35*%
%TO.N,unconnected-(P2-Pin_35-Pad35)*%
X95758000Y-94488000D03*
%TO.P,P2,36,Pin_36*%
%TO.N,unconnected-(P2-Pin_36-Pad36)*%
X93218000Y-94488000D03*
%TO.P,P2,37,Pin_37*%
%TO.N,unconnected-(P2-Pin_37-Pad37)*%
X95758000Y-97028000D03*
%TO.P,P2,38,Pin_38*%
%TO.N,unconnected-(P2-Pin_38-Pad38)*%
X93218000Y-97028000D03*
%TO.P,P2,39,Pin_39*%
%TO.N,unconnected-(P2-Pin_39-Pad39)*%
X95758000Y-99568000D03*
%TO.P,P2,40,Pin_40*%
%TO.N,unconnected-(P2-Pin_40-Pad40)*%
X93218000Y-99568000D03*
%TO.P,P2,41,Pin_41*%
%TO.N,unconnected-(P2-Pin_41-Pad41)*%
X95758000Y-102108000D03*
%TO.P,P2,42,Pin_42*%
%TO.N,unconnected-(P2-Pin_42-Pad42)*%
X93218000Y-102108000D03*
%TO.P,P2,43,Pin_43*%
%TO.N,unconnected-(P2-Pin_43-Pad43)*%
X95758000Y-104648000D03*
%TO.P,P2,44,Pin_44*%
%TO.N,unconnected-(P2-Pin_44-Pad44)*%
X93218000Y-104648000D03*
%TO.P,P2,45,Pin_45*%
%TO.N,unconnected-(P2-Pin_45-Pad45)*%
X95758000Y-107188000D03*
%TO.P,P2,46,Pin_46*%
%TO.N,unconnected-(P2-Pin_46-Pad46)*%
X93218000Y-107188000D03*
%TO.P,P2,47,Pin_47*%
%TO.N,unconnected-(P2-Pin_47-Pad47)*%
X95758000Y-109728000D03*
%TO.P,P2,48,Pin_48*%
%TO.N,unconnected-(P2-Pin_48-Pad48)*%
X93218000Y-109728000D03*
%TO.P,P2,49,Pin_49*%
%TO.N,GND*%
X95758000Y-112268000D03*
%TO.P,P2,50,Pin_50*%
X93218000Y-112268000D03*
%TD*%
D17*
%TO.P,P1,1,Pin_1*%
%TO.N,GND*%
X102870000Y-51308000D03*
D18*
%TO.P,P1,2,Pin_2*%
X100330000Y-51308000D03*
%TO.P,P1,3,Pin_3*%
%TO.N,unconnected-(P1-Pin_3-Pad3)*%
X102870000Y-53848000D03*
%TO.P,P1,4,Pin_4*%
%TO.N,unconnected-(P1-Pin_4-Pad4)*%
X100330000Y-53848000D03*
%TO.P,P1,5,Pin_5*%
%TO.N,unconnected-(P1-Pin_5-Pad5)*%
X102870000Y-56388000D03*
%TO.P,P1,6,Pin_6*%
%TO.N,GND*%
X100330000Y-56388000D03*
%TO.P,P1,7,Pin_7*%
%TO.N,unconnected-(P1-Pin_7-Pad7)*%
X102870000Y-58928000D03*
%TO.P,P1,8,Pin_8*%
%TO.N,unconnected-(P1-Pin_8-Pad8)*%
X100330000Y-58928000D03*
%TO.P,P1,9,Pin_9*%
%TO.N,unconnected-(P1-Pin_9-Pad9)*%
X102870000Y-61468000D03*
%TO.P,P1,10,Pin_10*%
%TO.N,IR_OUTPUT*%
X100330000Y-61468000D03*
%TO.P,P1,11,Pin_11*%
%TO.N,unconnected-(P1-Pin_11-Pad11)*%
X102870000Y-64008000D03*
%TO.P,P1,12,Pin_12*%
%TO.N,unconnected-(P1-Pin_12-Pad12)*%
X100330000Y-64008000D03*
%TO.P,P1,13,Pin_13*%
%TO.N,unconnected-(P1-Pin_13-Pad13)*%
X102870000Y-66548000D03*
%TO.P,P1,14,Pin_14*%
%TO.N,unconnected-(P1-Pin_14-Pad14)*%
X100330000Y-66548000D03*
%TO.P,P1,15,Pin_15*%
%TO.N,unconnected-(P1-Pin_15-Pad15)*%
X102870000Y-69088000D03*
%TO.P,P1,16,Pin_16*%
%TO.N,unconnected-(P1-Pin_16-Pad16)*%
X100330000Y-69088000D03*
%TO.P,P1,17,Pin_17*%
%TO.N,unconnected-(P1-Pin_17-Pad17)*%
X102870000Y-71628000D03*
%TO.P,P1,18,Pin_18*%
%TO.N,unconnected-(P1-Pin_18-Pad18)*%
X100330000Y-71628000D03*
%TO.P,P1,19,Pin_19*%
%TO.N,unconnected-(P1-Pin_19-Pad19)*%
X102870000Y-74168000D03*
%TO.P,P1,20,Pin_20*%
%TO.N,unconnected-(P1-Pin_20-Pad20)*%
X100330000Y-74168000D03*
%TO.P,P1,21,Pin_21*%
%TO.N,unconnected-(P1-Pin_21-Pad21)*%
X102870000Y-76708000D03*
%TO.P,P1,22,Pin_22*%
%TO.N,unconnected-(P1-Pin_22-Pad22)*%
X100330000Y-76708000D03*
%TO.P,P1,23,Pin_23*%
%TO.N,unconnected-(P1-Pin_23-Pad23)*%
X102870000Y-79248000D03*
%TO.P,P1,24,Pin_24*%
%TO.N,GND*%
X100330000Y-79248000D03*
%TO.P,P1,25,Pin_25*%
%TO.N,unconnected-(P1-Pin_25-Pad25)*%
X102870000Y-81788000D03*
%TO.P,P1,26,Pin_26*%
%TO.N,unconnected-(P1-Pin_26-Pad26)*%
X100330000Y-81788000D03*
%TO.P,P1,27,Pin_27*%
%TO.N,unconnected-(P1-Pin_27-Pad27)*%
X102870000Y-84328000D03*
%TO.P,P1,28,Pin_28*%
%TO.N,unconnected-(P1-Pin_28-Pad28)*%
X100330000Y-84328000D03*
%TO.P,P1,29,Pin_29*%
%TO.N,unconnected-(P1-Pin_29-Pad29)*%
X102870000Y-86868000D03*
%TO.P,P1,30,Pin_30*%
%TO.N,unconnected-(P1-Pin_30-Pad30)*%
X100330000Y-86868000D03*
%TO.P,P1,31,Pin_31*%
%TO.N,unconnected-(P1-Pin_31-Pad31)*%
X102870000Y-89408000D03*
%TO.P,P1,32,Pin_32*%
%TO.N,unconnected-(P1-Pin_32-Pad32)*%
X100330000Y-89408000D03*
%TO.P,P1,33,Pin_33*%
%TO.N,unconnected-(P1-Pin_33-Pad33)*%
X102870000Y-91948000D03*
%TO.P,P1,34,Pin_34*%
%TO.N,unconnected-(P1-Pin_34-Pad34)*%
X100330000Y-91948000D03*
%TO.P,P1,35,Pin_35*%
%TO.N,unconnected-(P1-Pin_35-Pad35)*%
X102870000Y-94488000D03*
%TO.P,P1,36,Pin_36*%
%TO.N,unconnected-(P1-Pin_36-Pad36)*%
X100330000Y-94488000D03*
%TO.P,P1,37,Pin_37*%
%TO.N,unconnected-(P1-Pin_37-Pad37)*%
X102870000Y-97028000D03*
%TO.P,P1,38,Pin_38*%
%TO.N,unconnected-(P1-Pin_38-Pad38)*%
X100330000Y-97028000D03*
%TO.P,P1,39,Pin_39*%
%TO.N,unconnected-(P1-Pin_39-Pad39)*%
X102870000Y-99568000D03*
%TO.P,P1,40,Pin_40*%
%TO.N,unconnected-(P1-Pin_40-Pad40)*%
X100330000Y-99568000D03*
%TO.P,P1,41,Pin_41*%
%TO.N,unconnected-(P1-Pin_41-Pad41)*%
X102870000Y-102108000D03*
%TO.P,P1,42,Pin_42*%
%TO.N,unconnected-(P1-Pin_42-Pad42)*%
X100330000Y-102108000D03*
%TO.P,P1,43,Pin_43*%
%TO.N,unconnected-(P1-Pin_43-Pad43)*%
X102870000Y-104648000D03*
%TO.P,P1,44,Pin_44*%
%TO.N,Buzzer*%
X100330000Y-104648000D03*
%TO.P,P1,45,Pin_45*%
%TO.N,unconnected-(P1-Pin_45-Pad45)*%
X102870000Y-107188000D03*
%TO.P,P1,46,Pin_46*%
%TO.N,unconnected-(P1-Pin_46-Pad46)*%
X100330000Y-107188000D03*
%TO.P,P1,47,Pin_47*%
%TO.N,unconnected-(P1-Pin_47-Pad47)*%
X102870000Y-109728000D03*
%TO.P,P1,48,Pin_48*%
%TO.N,unconnected-(P1-Pin_48-Pad48)*%
X100330000Y-109728000D03*
%TO.P,P1,49,Pin_49*%
%TO.N,GND*%
X102870000Y-112268000D03*
%TO.P,P1,50,Pin_50*%
X100330000Y-112268000D03*
%TD*%
D19*
%TO.P,D4,1,K*%
%TO.N,GND*%
X145805000Y-57912000D03*
%TO.P,D4,2,A*%
%TO.N,Net-(D4-A)*%
X143755000Y-57912000D03*
%TD*%
D20*
%TO.P,D3,2,A*%
%TO.N,IR_OUTPUT*%
X140725000Y-69088000D03*
%TO.P,D3,1,K*%
%TO.N,GND*%
X138675000Y-69088000D03*
%TD*%
D21*
%TO.P,D2,2,A*%
%TO.N,GND*%
X119126000Y-61214000D03*
D22*
%TO.P,D2,1,K*%
%TO.N,Net-(D2-K)*%
X119126000Y-58674000D03*
%TD*%
D23*
%TO.P,D1,2,A*%
%TO.N,Net-(D1-A)*%
X112014000Y-58544000D03*
%TO.P,D1,1,K*%
%TO.N,GND*%
X112014000Y-61344000D03*
%TD*%
D24*
%TO.P,BZ1,1,-*%
%TO.N,Buzzer*%
X119390000Y-96520000D03*
D25*
%TO.P,BZ1,2,+*%
%TO.N,GND*%
X126990000Y-96520000D03*
%TD*%
D26*
%TO.N,GND*%
X131064000Y-96520000D03*
X147320000Y-57912000D03*
%TO.N,Net-(U1-+)*%
X127508000Y-62480500D03*
X127508000Y-63929500D03*
%TO.N,VDD*%
X98044000Y-54102000D03*
X105156000Y-53340000D03*
%TO.N,GND*%
X91440000Y-115062000D03*
X97536000Y-114808000D03*
X104648000Y-114808000D03*
X98552000Y-114808000D03*
X98044000Y-79248000D03*
X98044000Y-56134000D03*
X104648000Y-49022000D03*
X98552000Y-49022000D03*
X97536000Y-49022000D03*
X91440000Y-49022000D03*
X121158000Y-63754000D03*
X136906000Y-69088000D03*
X112014000Y-62992000D03*
X111252000Y-67564000D03*
%TD*%
D27*
%TO.N,+3V0*%
X95758000Y-56388000D02*
X93218000Y-56388000D01*
%TO.N,Net-(D1-A)*%
X112014000Y-55102000D02*
X112014000Y-58544000D01*
%TO.N,GND*%
X126990000Y-96520000D02*
X131064000Y-96520000D01*
%TO.N,Buzzer*%
X101505000Y-103473000D02*
X100330000Y-104648000D01*
X112437000Y-103473000D02*
X101505000Y-103473000D01*
X119390000Y-96520000D02*
X112437000Y-103473000D01*
%TO.N,Net-(U1-+)*%
X125730000Y-70079000D02*
X123618000Y-70079000D01*
X125730000Y-65707500D02*
X127508000Y-63929500D01*
X125730000Y-70079000D02*
X125730000Y-65707500D01*
%TO.N,IR_OUTPUT*%
X140716000Y-69097000D02*
X140725000Y-69088000D01*
X140716000Y-77978000D02*
X140716000Y-69097000D01*
X110744000Y-72390000D02*
X110744000Y-77978000D01*
X110744000Y-77978000D02*
X140716000Y-77978000D01*
X103631999Y-62738000D02*
X104045000Y-63151001D01*
X104045000Y-65691000D02*
X110744000Y-72390000D01*
X101600000Y-62738000D02*
X103631999Y-62738000D01*
X104045000Y-63151001D02*
X104045000Y-65691000D01*
X100330000Y-61468000D02*
X101600000Y-62738000D01*
X140725000Y-63104500D02*
X140358500Y-62738000D01*
X140725000Y-69088000D02*
X140725000Y-63104500D01*
%TO.N,GND*%
X145805000Y-57912000D02*
X147320000Y-57912000D01*
%TO.N,Net-(D4-A)*%
X143755000Y-57912000D02*
X140358500Y-57912000D01*
%TO.N,VDD*%
X134540500Y-61905000D02*
X133468000Y-61905000D01*
X138533500Y-57912000D02*
X134540500Y-61905000D01*
%TO.N,Net-(R3-Pad1)*%
X138350500Y-62555000D02*
X138533500Y-62738000D01*
X133468000Y-62555000D02*
X138350500Y-62555000D01*
%TO.N,Net-(D2-K)*%
X119126000Y-58674000D02*
X119126000Y-55014500D01*
X124726805Y-58674000D02*
X119126000Y-58674000D01*
X129168000Y-61905000D02*
X127957805Y-61905000D01*
X127957805Y-61905000D02*
X124726805Y-58674000D01*
%TO.N,Net-(U1-+)*%
X127508000Y-62480500D02*
X129093500Y-62480500D01*
X129093500Y-62480500D02*
X129168000Y-62555000D01*
%TO.N,VDD*%
X113618000Y-72579000D02*
X107442000Y-66403000D01*
X107442000Y-53102000D02*
X105648000Y-53102000D01*
X112014000Y-53102000D02*
X107442000Y-53102000D01*
X107442000Y-66403000D02*
X107442000Y-53102000D01*
X132668000Y-61905000D02*
X133468000Y-61905000D01*
X123952500Y-53189500D02*
X132668000Y-61905000D01*
X119126000Y-53189500D02*
X123952500Y-53189500D01*
X96012000Y-54102000D02*
X95758000Y-53848000D01*
X98044000Y-54102000D02*
X96012000Y-54102000D01*
X105648000Y-53102000D02*
X105410000Y-53340000D01*
X105410000Y-53340000D02*
X105156000Y-53340000D01*
X119038500Y-53102000D02*
X119126000Y-53189500D01*
X112014000Y-53102000D02*
X119038500Y-53102000D01*
%TO.N,GND*%
X91440000Y-49530000D02*
X93218000Y-51308000D01*
X91440000Y-49022000D02*
X91440000Y-49530000D01*
X97536000Y-49022000D02*
X97536000Y-49530000D01*
X97536000Y-49530000D02*
X95758000Y-51308000D01*
X104648000Y-49530000D02*
X102870000Y-51308000D01*
X104648000Y-49022000D02*
X104648000Y-49530000D01*
X98552000Y-49530000D02*
X100330000Y-51308000D01*
X98552000Y-49022000D02*
X98552000Y-49530000D01*
X104648000Y-114046000D02*
X102870000Y-112268000D01*
X104648000Y-114808000D02*
X104648000Y-114046000D01*
X97536000Y-114046000D02*
X95758000Y-112268000D01*
X97536000Y-114808000D02*
X97536000Y-114046000D01*
X98552000Y-114046000D02*
X100330000Y-112268000D01*
X98552000Y-114808000D02*
X98552000Y-114046000D01*
X91440000Y-114046000D02*
X91440000Y-115062000D01*
X93218000Y-112268000D02*
X91440000Y-114046000D01*
X100330000Y-79248000D02*
X98044000Y-79248000D01*
X98298000Y-56388000D02*
X98044000Y-56134000D01*
X100330000Y-56388000D02*
X98298000Y-56388000D01*
X121158000Y-63246000D02*
X121158000Y-63754000D01*
X121117000Y-63205000D02*
X121158000Y-63246000D01*
X138675000Y-69088000D02*
X136906000Y-69088000D01*
X121117000Y-63205000D02*
X129168000Y-63205000D01*
X119126000Y-61214000D02*
X121117000Y-63205000D01*
X112014000Y-61344000D02*
X112014000Y-62992000D01*
X111267000Y-67579000D02*
X111252000Y-67564000D01*
X113618000Y-67579000D02*
X111267000Y-67579000D01*
%TD*%
M02*
