%TF.GenerationSoftware,KiCad,Pcbnew,7.0.1*%
%TF.CreationDate,2023-06-06T22:13:03-06:00*%
%TF.ProjectId,CarSensor,43617253-656e-4736-9f72-2e6b69636164,rev?*%
%TF.SameCoordinates,Original*%
%TF.FileFunction,Soldermask,Top*%
%TF.FilePolarity,Negative*%
%FSLAX46Y46*%
G04 Gerber Fmt 4.6, Leading zero omitted, Abs format (unit mm)*
G04 Created by KiCad (PCBNEW 7.0.1) date 2023-06-06 22:13:03*
%MOMM*%
%LPD*%
G01*
G04 APERTURE LIST*
G04 Aperture macros list*
%AMRoundRect*
0 Rectangle with rounded corners*
0 $1 Rounding radius*
0 $2 $3 $4 $5 $6 $7 $8 $9 X,Y pos of 4 corners*
0 Add a 4 corners polygon primitive as box body*
4,1,4,$2,$3,$4,$5,$6,$7,$8,$9,$2,$3,0*
0 Add four circle primitives for the rounded corners*
1,1,$1+$1,$2,$3*
1,1,$1+$1,$4,$5*
1,1,$1+$1,$6,$7*
1,1,$1+$1,$8,$9*
0 Add four rect primitives between the rounded corners*
20,1,$1+$1,$2,$3,$4,$5,0*
20,1,$1+$1,$4,$5,$6,$7,0*
20,1,$1+$1,$6,$7,$8,$9,0*
20,1,$1+$1,$8,$9,$2,$3,0*%
G04 Aperture macros list end*
%ADD10R,1.100000X0.400000*%
%ADD11C,2.340000*%
%ADD12C,4.000000*%
%ADD13RoundRect,0.250000X-0.262500X-0.450000X0.262500X-0.450000X0.262500X0.450000X-0.262500X0.450000X0*%
%ADD14RoundRect,0.250000X-0.450000X0.262500X-0.450000X-0.262500X0.450000X-0.262500X0.450000X0.262500X0*%
%ADD15RoundRect,0.250000X-0.450000X0.350000X-0.450000X-0.350000X0.450000X-0.350000X0.450000X0.350000X0*%
%ADD16R,1.700000X1.700000*%
%ADD17O,1.700000X1.700000*%
%ADD18RoundRect,0.250000X0.325000X0.450000X-0.325000X0.450000X-0.325000X-0.450000X0.325000X-0.450000X0*%
%ADD19RoundRect,0.250000X-0.325000X-0.450000X0.325000X-0.450000X0.325000X0.450000X-0.325000X0.450000X0*%
%ADD20C,1.800000*%
%ADD21R,1.800000X1.800000*%
%ADD22RoundRect,0.250000X0.625000X-0.375000X0.625000X0.375000X-0.625000X0.375000X-0.625000X-0.375000X0*%
%ADD23R,2.000000X2.000000*%
%ADD24C,2.000000*%
G04 APERTURE END LIST*
D10*
%TO.C,U1*%
X133468000Y-61255000D03*
X133468000Y-61905000D03*
X133468000Y-62555000D03*
X133468000Y-63205000D03*
X129168000Y-63205000D03*
X129168000Y-62555000D03*
X129168000Y-61905000D03*
X129168000Y-61255000D03*
%TD*%
D11*
%TO.C,RV1*%
X113618000Y-67579000D03*
X123618000Y-70079000D03*
X113618000Y-72579000D03*
D12*
X118618000Y-70079000D03*
%TD*%
D13*
%TO.C,R4*%
X140358500Y-57912000D03*
X138533500Y-57912000D03*
%TD*%
%TO.C,R3*%
X140358500Y-62738000D03*
X138533500Y-62738000D03*
%TD*%
D14*
%TO.C,R2*%
X119126000Y-55014500D03*
X119126000Y-53189500D03*
%TD*%
D15*
%TO.C,R1*%
X112014000Y-55102000D03*
X112014000Y-53102000D03*
%TD*%
D16*
%TO.C,P2*%
X95758000Y-51308000D03*
D17*
X93218000Y-51308000D03*
X95758000Y-53848000D03*
X93218000Y-53848000D03*
X95758000Y-56388000D03*
X93218000Y-56388000D03*
X95758000Y-58928000D03*
X93218000Y-58928000D03*
X95758000Y-61468000D03*
X93218000Y-61468000D03*
X95758000Y-64008000D03*
X93218000Y-64008000D03*
X95758000Y-66548000D03*
X93218000Y-66548000D03*
X95758000Y-69088000D03*
X93218000Y-69088000D03*
X95758000Y-71628000D03*
X93218000Y-71628000D03*
X95758000Y-74168000D03*
X93218000Y-74168000D03*
X95758000Y-76708000D03*
X93218000Y-76708000D03*
X95758000Y-79248000D03*
X93218000Y-79248000D03*
X95758000Y-81788000D03*
X93218000Y-81788000D03*
X95758000Y-84328000D03*
X93218000Y-84328000D03*
X95758000Y-86868000D03*
X93218000Y-86868000D03*
X95758000Y-89408000D03*
X93218000Y-89408000D03*
X95758000Y-91948000D03*
X93218000Y-91948000D03*
X95758000Y-94488000D03*
X93218000Y-94488000D03*
X95758000Y-97028000D03*
X93218000Y-97028000D03*
X95758000Y-99568000D03*
X93218000Y-99568000D03*
X95758000Y-102108000D03*
X93218000Y-102108000D03*
X95758000Y-104648000D03*
X93218000Y-104648000D03*
X95758000Y-107188000D03*
X93218000Y-107188000D03*
X95758000Y-109728000D03*
X93218000Y-109728000D03*
X95758000Y-112268000D03*
X93218000Y-112268000D03*
%TD*%
D16*
%TO.C,P1*%
X102870000Y-51308000D03*
D17*
X100330000Y-51308000D03*
X102870000Y-53848000D03*
X100330000Y-53848000D03*
X102870000Y-56388000D03*
X100330000Y-56388000D03*
X102870000Y-58928000D03*
X100330000Y-58928000D03*
X102870000Y-61468000D03*
X100330000Y-61468000D03*
X102870000Y-64008000D03*
X100330000Y-64008000D03*
X102870000Y-66548000D03*
X100330000Y-66548000D03*
X102870000Y-69088000D03*
X100330000Y-69088000D03*
X102870000Y-71628000D03*
X100330000Y-71628000D03*
X102870000Y-74168000D03*
X100330000Y-74168000D03*
X102870000Y-76708000D03*
X100330000Y-76708000D03*
X102870000Y-79248000D03*
X100330000Y-79248000D03*
X102870000Y-81788000D03*
X100330000Y-81788000D03*
X102870000Y-84328000D03*
X100330000Y-84328000D03*
X102870000Y-86868000D03*
X100330000Y-86868000D03*
X102870000Y-89408000D03*
X100330000Y-89408000D03*
X102870000Y-91948000D03*
X100330000Y-91948000D03*
X102870000Y-94488000D03*
X100330000Y-94488000D03*
X102870000Y-97028000D03*
X100330000Y-97028000D03*
X102870000Y-99568000D03*
X100330000Y-99568000D03*
X102870000Y-102108000D03*
X100330000Y-102108000D03*
X102870000Y-104648000D03*
X100330000Y-104648000D03*
X102870000Y-107188000D03*
X100330000Y-107188000D03*
X102870000Y-109728000D03*
X100330000Y-109728000D03*
X102870000Y-112268000D03*
X100330000Y-112268000D03*
%TD*%
D18*
%TO.C,D4*%
X145805000Y-57912000D03*
X143755000Y-57912000D03*
%TD*%
D19*
%TO.C,D3*%
X140725000Y-69088000D03*
X138675000Y-69088000D03*
%TD*%
D20*
%TO.C,D2*%
X119126000Y-61214000D03*
D21*
X119126000Y-58674000D03*
%TD*%
D22*
%TO.C,D1*%
X112014000Y-58544000D03*
X112014000Y-61344000D03*
%TD*%
D23*
%TO.C,BZ1*%
X119390000Y-96520000D03*
D24*
X126990000Y-96520000D03*
%TD*%
M02*
