%TF.GenerationSoftware,KiCad,Pcbnew,7.0.1*%
%TF.CreationDate,2023-06-06T22:13:03-06:00*%
%TF.ProjectId,CarSensor,43617253-656e-4736-9f72-2e6b69636164,rev?*%
%TF.SameCoordinates,Original*%
%TF.FileFunction,Legend,Top*%
%TF.FilePolarity,Positive*%
%FSLAX46Y46*%
G04 Gerber Fmt 4.6, Leading zero omitted, Abs format (unit mm)*
G04 Created by KiCad (PCBNEW 7.0.1) date 2023-06-06 22:13:03*
%MOMM*%
%LPD*%
G01*
G04 APERTURE LIST*
%ADD10C,0.150000*%
%ADD11C,0.120000*%
G04 APERTURE END LIST*
D10*
%TO.C,U1*%
X131318095Y-59152619D02*
X131318095Y-59962142D01*
X131318095Y-59962142D02*
X131365714Y-60057380D01*
X131365714Y-60057380D02*
X131413333Y-60105000D01*
X131413333Y-60105000D02*
X131508571Y-60152619D01*
X131508571Y-60152619D02*
X131699047Y-60152619D01*
X131699047Y-60152619D02*
X131794285Y-60105000D01*
X131794285Y-60105000D02*
X131841904Y-60057380D01*
X131841904Y-60057380D02*
X131889523Y-59962142D01*
X131889523Y-59962142D02*
X131889523Y-59152619D01*
X132889523Y-60152619D02*
X132318095Y-60152619D01*
X132603809Y-60152619D02*
X132603809Y-59152619D01*
X132603809Y-59152619D02*
X132508571Y-59295476D01*
X132508571Y-59295476D02*
X132413333Y-59390714D01*
X132413333Y-59390714D02*
X132318095Y-59438333D01*
%TO.C,RV1*%
X118022761Y-64391619D02*
X117689428Y-63915428D01*
X117451333Y-64391619D02*
X117451333Y-63391619D01*
X117451333Y-63391619D02*
X117832285Y-63391619D01*
X117832285Y-63391619D02*
X117927523Y-63439238D01*
X117927523Y-63439238D02*
X117975142Y-63486857D01*
X117975142Y-63486857D02*
X118022761Y-63582095D01*
X118022761Y-63582095D02*
X118022761Y-63724952D01*
X118022761Y-63724952D02*
X117975142Y-63820190D01*
X117975142Y-63820190D02*
X117927523Y-63867809D01*
X117927523Y-63867809D02*
X117832285Y-63915428D01*
X117832285Y-63915428D02*
X117451333Y-63915428D01*
X118308476Y-63391619D02*
X118641809Y-64391619D01*
X118641809Y-64391619D02*
X118975142Y-63391619D01*
X119832285Y-64391619D02*
X119260857Y-64391619D01*
X119546571Y-64391619D02*
X119546571Y-63391619D01*
X119546571Y-63391619D02*
X119451333Y-63534476D01*
X119451333Y-63534476D02*
X119356095Y-63629714D01*
X119356095Y-63629714D02*
X119260857Y-63677333D01*
%TO.C,R4*%
X139279333Y-56724619D02*
X138946000Y-56248428D01*
X138707905Y-56724619D02*
X138707905Y-55724619D01*
X138707905Y-55724619D02*
X139088857Y-55724619D01*
X139088857Y-55724619D02*
X139184095Y-55772238D01*
X139184095Y-55772238D02*
X139231714Y-55819857D01*
X139231714Y-55819857D02*
X139279333Y-55915095D01*
X139279333Y-55915095D02*
X139279333Y-56057952D01*
X139279333Y-56057952D02*
X139231714Y-56153190D01*
X139231714Y-56153190D02*
X139184095Y-56200809D01*
X139184095Y-56200809D02*
X139088857Y-56248428D01*
X139088857Y-56248428D02*
X138707905Y-56248428D01*
X140136476Y-56057952D02*
X140136476Y-56724619D01*
X139898381Y-55677000D02*
X139660286Y-56391285D01*
X139660286Y-56391285D02*
X140279333Y-56391285D01*
%TO.C,R3*%
X139279333Y-61550619D02*
X138946000Y-61074428D01*
X138707905Y-61550619D02*
X138707905Y-60550619D01*
X138707905Y-60550619D02*
X139088857Y-60550619D01*
X139088857Y-60550619D02*
X139184095Y-60598238D01*
X139184095Y-60598238D02*
X139231714Y-60645857D01*
X139231714Y-60645857D02*
X139279333Y-60741095D01*
X139279333Y-60741095D02*
X139279333Y-60883952D01*
X139279333Y-60883952D02*
X139231714Y-60979190D01*
X139231714Y-60979190D02*
X139184095Y-61026809D01*
X139184095Y-61026809D02*
X139088857Y-61074428D01*
X139088857Y-61074428D02*
X138707905Y-61074428D01*
X139612667Y-60550619D02*
X140231714Y-60550619D01*
X140231714Y-60550619D02*
X139898381Y-60931571D01*
X139898381Y-60931571D02*
X140041238Y-60931571D01*
X140041238Y-60931571D02*
X140136476Y-60979190D01*
X140136476Y-60979190D02*
X140184095Y-61026809D01*
X140184095Y-61026809D02*
X140231714Y-61122047D01*
X140231714Y-61122047D02*
X140231714Y-61360142D01*
X140231714Y-61360142D02*
X140184095Y-61455380D01*
X140184095Y-61455380D02*
X140136476Y-61503000D01*
X140136476Y-61503000D02*
X140041238Y-61550619D01*
X140041238Y-61550619D02*
X139755524Y-61550619D01*
X139755524Y-61550619D02*
X139660286Y-61503000D01*
X139660286Y-61503000D02*
X139612667Y-61455380D01*
%TO.C,R2*%
X121238619Y-54268666D02*
X120762428Y-54601999D01*
X121238619Y-54840094D02*
X120238619Y-54840094D01*
X120238619Y-54840094D02*
X120238619Y-54459142D01*
X120238619Y-54459142D02*
X120286238Y-54363904D01*
X120286238Y-54363904D02*
X120333857Y-54316285D01*
X120333857Y-54316285D02*
X120429095Y-54268666D01*
X120429095Y-54268666D02*
X120571952Y-54268666D01*
X120571952Y-54268666D02*
X120667190Y-54316285D01*
X120667190Y-54316285D02*
X120714809Y-54363904D01*
X120714809Y-54363904D02*
X120762428Y-54459142D01*
X120762428Y-54459142D02*
X120762428Y-54840094D01*
X120333857Y-53887713D02*
X120286238Y-53840094D01*
X120286238Y-53840094D02*
X120238619Y-53744856D01*
X120238619Y-53744856D02*
X120238619Y-53506761D01*
X120238619Y-53506761D02*
X120286238Y-53411523D01*
X120286238Y-53411523D02*
X120333857Y-53363904D01*
X120333857Y-53363904D02*
X120429095Y-53316285D01*
X120429095Y-53316285D02*
X120524333Y-53316285D01*
X120524333Y-53316285D02*
X120667190Y-53363904D01*
X120667190Y-53363904D02*
X121238619Y-53935332D01*
X121238619Y-53935332D02*
X121238619Y-53316285D01*
%TO.C,R1*%
X114126619Y-54268666D02*
X113650428Y-54601999D01*
X114126619Y-54840094D02*
X113126619Y-54840094D01*
X113126619Y-54840094D02*
X113126619Y-54459142D01*
X113126619Y-54459142D02*
X113174238Y-54363904D01*
X113174238Y-54363904D02*
X113221857Y-54316285D01*
X113221857Y-54316285D02*
X113317095Y-54268666D01*
X113317095Y-54268666D02*
X113459952Y-54268666D01*
X113459952Y-54268666D02*
X113555190Y-54316285D01*
X113555190Y-54316285D02*
X113602809Y-54363904D01*
X113602809Y-54363904D02*
X113650428Y-54459142D01*
X113650428Y-54459142D02*
X113650428Y-54840094D01*
X114126619Y-53316285D02*
X114126619Y-53887713D01*
X114126619Y-53601999D02*
X113126619Y-53601999D01*
X113126619Y-53601999D02*
X113269476Y-53697237D01*
X113269476Y-53697237D02*
X113364714Y-53792475D01*
X113364714Y-53792475D02*
X113412333Y-53887713D01*
%TO.C,P2*%
X93495905Y-49230619D02*
X93495905Y-48230619D01*
X93495905Y-48230619D02*
X93876857Y-48230619D01*
X93876857Y-48230619D02*
X93972095Y-48278238D01*
X93972095Y-48278238D02*
X94019714Y-48325857D01*
X94019714Y-48325857D02*
X94067333Y-48421095D01*
X94067333Y-48421095D02*
X94067333Y-48563952D01*
X94067333Y-48563952D02*
X94019714Y-48659190D01*
X94019714Y-48659190D02*
X93972095Y-48706809D01*
X93972095Y-48706809D02*
X93876857Y-48754428D01*
X93876857Y-48754428D02*
X93495905Y-48754428D01*
X94448286Y-48325857D02*
X94495905Y-48278238D01*
X94495905Y-48278238D02*
X94591143Y-48230619D01*
X94591143Y-48230619D02*
X94829238Y-48230619D01*
X94829238Y-48230619D02*
X94924476Y-48278238D01*
X94924476Y-48278238D02*
X94972095Y-48325857D01*
X94972095Y-48325857D02*
X95019714Y-48421095D01*
X95019714Y-48421095D02*
X95019714Y-48516333D01*
X95019714Y-48516333D02*
X94972095Y-48659190D01*
X94972095Y-48659190D02*
X94400667Y-49230619D01*
X94400667Y-49230619D02*
X95019714Y-49230619D01*
%TO.C,P1*%
X100861905Y-49000619D02*
X100861905Y-48000619D01*
X100861905Y-48000619D02*
X101242857Y-48000619D01*
X101242857Y-48000619D02*
X101338095Y-48048238D01*
X101338095Y-48048238D02*
X101385714Y-48095857D01*
X101385714Y-48095857D02*
X101433333Y-48191095D01*
X101433333Y-48191095D02*
X101433333Y-48333952D01*
X101433333Y-48333952D02*
X101385714Y-48429190D01*
X101385714Y-48429190D02*
X101338095Y-48476809D01*
X101338095Y-48476809D02*
X101242857Y-48524428D01*
X101242857Y-48524428D02*
X100861905Y-48524428D01*
X102385714Y-49000619D02*
X101814286Y-49000619D01*
X102100000Y-49000619D02*
X102100000Y-48000619D01*
X102100000Y-48000619D02*
X102004762Y-48143476D01*
X102004762Y-48143476D02*
X101909524Y-48238714D01*
X101909524Y-48238714D02*
X101814286Y-48286333D01*
%TO.C,D4*%
X144041905Y-60024619D02*
X144041905Y-59024619D01*
X144041905Y-59024619D02*
X144280000Y-59024619D01*
X144280000Y-59024619D02*
X144422857Y-59072238D01*
X144422857Y-59072238D02*
X144518095Y-59167476D01*
X144518095Y-59167476D02*
X144565714Y-59262714D01*
X144565714Y-59262714D02*
X144613333Y-59453190D01*
X144613333Y-59453190D02*
X144613333Y-59596047D01*
X144613333Y-59596047D02*
X144565714Y-59786523D01*
X144565714Y-59786523D02*
X144518095Y-59881761D01*
X144518095Y-59881761D02*
X144422857Y-59977000D01*
X144422857Y-59977000D02*
X144280000Y-60024619D01*
X144280000Y-60024619D02*
X144041905Y-60024619D01*
X145470476Y-59357952D02*
X145470476Y-60024619D01*
X145232381Y-58977000D02*
X144994286Y-59691285D01*
X144994286Y-59691285D02*
X145613333Y-59691285D01*
%TO.C,D3*%
X138961905Y-67900619D02*
X138961905Y-66900619D01*
X138961905Y-66900619D02*
X139200000Y-66900619D01*
X139200000Y-66900619D02*
X139342857Y-66948238D01*
X139342857Y-66948238D02*
X139438095Y-67043476D01*
X139438095Y-67043476D02*
X139485714Y-67138714D01*
X139485714Y-67138714D02*
X139533333Y-67329190D01*
X139533333Y-67329190D02*
X139533333Y-67472047D01*
X139533333Y-67472047D02*
X139485714Y-67662523D01*
X139485714Y-67662523D02*
X139438095Y-67757761D01*
X139438095Y-67757761D02*
X139342857Y-67853000D01*
X139342857Y-67853000D02*
X139200000Y-67900619D01*
X139200000Y-67900619D02*
X138961905Y-67900619D01*
X139866667Y-66900619D02*
X140485714Y-66900619D01*
X140485714Y-66900619D02*
X140152381Y-67281571D01*
X140152381Y-67281571D02*
X140295238Y-67281571D01*
X140295238Y-67281571D02*
X140390476Y-67329190D01*
X140390476Y-67329190D02*
X140438095Y-67376809D01*
X140438095Y-67376809D02*
X140485714Y-67472047D01*
X140485714Y-67472047D02*
X140485714Y-67710142D01*
X140485714Y-67710142D02*
X140438095Y-67805380D01*
X140438095Y-67805380D02*
X140390476Y-67853000D01*
X140390476Y-67853000D02*
X140295238Y-67900619D01*
X140295238Y-67900619D02*
X140009524Y-67900619D01*
X140009524Y-67900619D02*
X139914286Y-67853000D01*
X139914286Y-67853000D02*
X139866667Y-67805380D01*
%TO.C,D2*%
X123048619Y-60682094D02*
X122048619Y-60682094D01*
X122048619Y-60682094D02*
X122048619Y-60443999D01*
X122048619Y-60443999D02*
X122096238Y-60301142D01*
X122096238Y-60301142D02*
X122191476Y-60205904D01*
X122191476Y-60205904D02*
X122286714Y-60158285D01*
X122286714Y-60158285D02*
X122477190Y-60110666D01*
X122477190Y-60110666D02*
X122620047Y-60110666D01*
X122620047Y-60110666D02*
X122810523Y-60158285D01*
X122810523Y-60158285D02*
X122905761Y-60205904D01*
X122905761Y-60205904D02*
X123001000Y-60301142D01*
X123001000Y-60301142D02*
X123048619Y-60443999D01*
X123048619Y-60443999D02*
X123048619Y-60682094D01*
X122143857Y-59729713D02*
X122096238Y-59682094D01*
X122096238Y-59682094D02*
X122048619Y-59586856D01*
X122048619Y-59586856D02*
X122048619Y-59348761D01*
X122048619Y-59348761D02*
X122096238Y-59253523D01*
X122096238Y-59253523D02*
X122143857Y-59205904D01*
X122143857Y-59205904D02*
X122239095Y-59158285D01*
X122239095Y-59158285D02*
X122334333Y-59158285D01*
X122334333Y-59158285D02*
X122477190Y-59205904D01*
X122477190Y-59205904D02*
X123048619Y-59777332D01*
X123048619Y-59777332D02*
X123048619Y-59158285D01*
%TO.C,D1*%
X110656619Y-60682094D02*
X109656619Y-60682094D01*
X109656619Y-60682094D02*
X109656619Y-60443999D01*
X109656619Y-60443999D02*
X109704238Y-60301142D01*
X109704238Y-60301142D02*
X109799476Y-60205904D01*
X109799476Y-60205904D02*
X109894714Y-60158285D01*
X109894714Y-60158285D02*
X110085190Y-60110666D01*
X110085190Y-60110666D02*
X110228047Y-60110666D01*
X110228047Y-60110666D02*
X110418523Y-60158285D01*
X110418523Y-60158285D02*
X110513761Y-60205904D01*
X110513761Y-60205904D02*
X110609000Y-60301142D01*
X110609000Y-60301142D02*
X110656619Y-60443999D01*
X110656619Y-60443999D02*
X110656619Y-60682094D01*
X110656619Y-59158285D02*
X110656619Y-59729713D01*
X110656619Y-59443999D02*
X109656619Y-59443999D01*
X109656619Y-59443999D02*
X109799476Y-59539237D01*
X109799476Y-59539237D02*
X109894714Y-59634475D01*
X109894714Y-59634475D02*
X109942333Y-59729713D01*
%TO.C,BZ1*%
X122309047Y-89258809D02*
X122451904Y-89306428D01*
X122451904Y-89306428D02*
X122499523Y-89354047D01*
X122499523Y-89354047D02*
X122547142Y-89449285D01*
X122547142Y-89449285D02*
X122547142Y-89592142D01*
X122547142Y-89592142D02*
X122499523Y-89687380D01*
X122499523Y-89687380D02*
X122451904Y-89735000D01*
X122451904Y-89735000D02*
X122356666Y-89782619D01*
X122356666Y-89782619D02*
X121975714Y-89782619D01*
X121975714Y-89782619D02*
X121975714Y-88782619D01*
X121975714Y-88782619D02*
X122309047Y-88782619D01*
X122309047Y-88782619D02*
X122404285Y-88830238D01*
X122404285Y-88830238D02*
X122451904Y-88877857D01*
X122451904Y-88877857D02*
X122499523Y-88973095D01*
X122499523Y-88973095D02*
X122499523Y-89068333D01*
X122499523Y-89068333D02*
X122451904Y-89163571D01*
X122451904Y-89163571D02*
X122404285Y-89211190D01*
X122404285Y-89211190D02*
X122309047Y-89258809D01*
X122309047Y-89258809D02*
X121975714Y-89258809D01*
X122880476Y-88782619D02*
X123547142Y-88782619D01*
X123547142Y-88782619D02*
X122880476Y-89782619D01*
X122880476Y-89782619D02*
X123547142Y-89782619D01*
X124451904Y-89782619D02*
X123880476Y-89782619D01*
X124166190Y-89782619D02*
X124166190Y-88782619D01*
X124166190Y-88782619D02*
X124070952Y-88925476D01*
X124070952Y-88925476D02*
X123975714Y-89020714D01*
X123975714Y-89020714D02*
X123880476Y-89068333D01*
X118999048Y-94061666D02*
X119760953Y-94061666D01*
X119380000Y-94442619D02*
X119380000Y-93680714D01*
%TO.C,U1*%
X132943000Y-60605000D02*
X132943000Y-60830000D01*
X129693000Y-60605000D02*
X129693000Y-60730000D01*
X129693000Y-63855000D02*
X129693000Y-63630000D01*
X132943000Y-63855000D02*
X132943000Y-63630000D01*
X129693000Y-60605000D02*
X132943000Y-60605000D01*
X129693000Y-63855000D02*
X132943000Y-63855000D01*
X129693000Y-60730000D02*
X128618000Y-60730000D01*
D11*
%TO.C,RV1*%
X123738000Y-71504000D02*
X123738000Y-75099000D01*
X113498000Y-75099000D02*
X123738000Y-75099000D01*
X113498000Y-74004000D02*
X113498000Y-75099000D01*
X113498000Y-65058000D02*
X113498000Y-66153000D01*
X123738000Y-65058000D02*
X123738000Y-68654000D01*
X113498000Y-65058000D02*
X123738000Y-65058000D01*
X113498000Y-69005000D02*
X113498000Y-71154000D01*
%TO.C,R4*%
X139218936Y-58647000D02*
X139673064Y-58647000D01*
X139218936Y-57177000D02*
X139673064Y-57177000D01*
%TO.C,R3*%
X139218936Y-63473000D02*
X139673064Y-63473000D01*
X139218936Y-62003000D02*
X139673064Y-62003000D01*
%TO.C,R2*%
X118391000Y-53874936D02*
X118391000Y-54329064D01*
X119861000Y-53874936D02*
X119861000Y-54329064D01*
%TO.C,R1*%
X111279000Y-53874936D02*
X111279000Y-54329064D01*
X112749000Y-53874936D02*
X112749000Y-54329064D01*
%TO.C,P2*%
X97088000Y-49978000D02*
X97088000Y-51308000D01*
X94488000Y-49978000D02*
X94488000Y-52578000D01*
X95758000Y-49978000D02*
X97088000Y-49978000D01*
X91888000Y-49978000D02*
X91888000Y-113598000D01*
X94488000Y-52578000D02*
X97088000Y-52578000D01*
X91888000Y-49978000D02*
X94488000Y-49978000D01*
X91888000Y-113598000D02*
X97088000Y-113598000D01*
X97088000Y-52578000D02*
X97088000Y-113598000D01*
%TO.C,P1*%
X104200000Y-49978000D02*
X104200000Y-51308000D01*
X101600000Y-49978000D02*
X101600000Y-52578000D01*
X102870000Y-49978000D02*
X104200000Y-49978000D01*
X99000000Y-49978000D02*
X99000000Y-113598000D01*
X101600000Y-52578000D02*
X104200000Y-52578000D01*
X99000000Y-49978000D02*
X101600000Y-49978000D01*
X99000000Y-113598000D02*
X104200000Y-113598000D01*
X104200000Y-52578000D02*
X104200000Y-113598000D01*
%TO.C,D4*%
X146640000Y-56952000D02*
X143780000Y-56952000D01*
X143780000Y-58872000D02*
X146640000Y-58872000D01*
X146640000Y-58872000D02*
X146640000Y-56952000D01*
%TO.C,D3*%
X137840000Y-68128000D02*
X137840000Y-70048000D01*
X140700000Y-68128000D02*
X137840000Y-68128000D01*
X137840000Y-70048000D02*
X140700000Y-70048000D01*
%TO.C,D2*%
X117727251Y-57884001D02*
G75*
G03*
X118045276Y-62187241I1398749J-2059999D01*
G01*
X118046001Y-58260671D02*
G75*
G03*
X118045040Y-61626712I1079999J-1683329D01*
G01*
X120206724Y-62187241D02*
G75*
G03*
X120524749Y-57884001I-1080724J2243241D01*
G01*
X120206960Y-61626712D02*
G75*
G03*
X120205999Y-58260671I-1080960J1682712D01*
G01*
X118046000Y-57884000D02*
X117727000Y-57884000D01*
X120525000Y-57884000D02*
X120206000Y-57884000D01*
%TO.C,D1*%
X113149000Y-62229000D02*
X113149000Y-58344000D01*
X110879000Y-58344000D02*
X110879000Y-62229000D01*
X110879000Y-62229000D02*
X113149000Y-62229000D01*
%TO.C,BZ1*%
X129290000Y-96520000D02*
G75*
G03*
X129290000Y-96520000I-6100000J0D01*
G01*
%TD*%
M02*
